<?xml version="1.0" encoding="UTF-8" standalone="no"?>
<!-- Created with Inkscape (http://www.inkscape.org/) -->

<svg
   xmlns:dc="http://purl.org/dc/elements/1.1/"
   xmlns:cc="http://creativecommons.org/ns#"
   xmlns:rdf="http://www.w3.org/1999/02/22-rdf-syntax-ns#"
   xmlns:svg="http://www.w3.org/2000/svg"
   xmlns="http://www.w3.org/2000/svg"
   xmlns:sodipodi="http://sodipodi.sourceforge.net/DTD/sodipodi-0.dtd"
   xmlns:inkscape="http://www.inkscape.org/namespaces/inkscape"
   id="svg3039"
   version="1.1"
   inkscape:version="0.48.4 r9939"
   width="561"
   height="503"
   sodipodi:docname="401.jpg">
  <metadata
     id="metadata3045">
    <rdf:RDF>
      <cc:Work
         rdf:about="">
        <dc:format>image/svg+xml</dc:format>
        <dc:type
           rdf:resource="http://purl.org/dc/dcmitype/StillImage" />
        <dc:title></dc:title>
      </cc:Work>
    </rdf:RDF>
  </metadata>
  <defs
     id="defs3043" />
  <sodipodi:namedview
     pagecolor="#ffffff"
     bordercolor="#666666"
     borderopacity="1"
     objecttolerance="10"
     gridtolerance="10"
     guidetolerance="10"
     inkscape:pageopacity="0"
     inkscape:pageshadow="2"
     inkscape:window-width="1366"
     inkscape:window-height="744"
     id="namedview3041"
     showgrid="false"
     inkscape:zoom="1.1868787"
     inkscape:cx="280.5"
     inkscape:cy="251.5"
     inkscape:window-x="0"
     inkscape:window-y="24"
     inkscape:window-maximized="1"
     inkscape:current-layer="svg3039" />
  <path
     style="fill:#000000"
     d="m 47.81239,498.12137 c -2.02819,-1.07122 -4.39069,-2.95146 -5.25,-4.17831 -1.97981,-2.82657 -2.0094,-9.02052 -0.0611,-12.78812 1.3196,-2.55184 9.2197,-8.99749 11.02774,-8.99749 0.36778,0 2.08671,-0.61847 3.81983,-1.37438 8.333575,-3.63472 16.335555,-4.61157 17.294995,-2.11132 1.29184,3.36648 -3.81974,7.14791 -12.42118,9.18892 -2.78826,0.66162 -12.222685,8.98436 -12.222685,10.78246 0,2.40027 3.33861,2.61326 9.441575,0.60233 9.47468,-3.1219 25.49001,-7.91524 31.7793,-9.51145 3.146482,-0.79857 11.471485,-3.3405 18.500005,-5.64873 7.02851,-2.30824 16.15412,-4.54947 20.27912,-4.98051 4.125,-0.43105 8.4,-0.9931 9.5,-1.24901 1.1,-0.25591 4.925,-0.76585 8.5,-1.13319 7.79513,-0.80097 14.60197,-2.16874 21.93059,-4.40674 7.22892,-2.20755 16.06941,-10.0519 16.06941,-14.25872 0,-2.87291 -0.0546,-2.89966 -5.91821,-2.89966 -3.25502,0 -6.65686,-0.28345 -7.55966,-0.62988 -1.13653,-0.43613 -1.81277,0.0253 -2.19842,1.5 -0.31153,1.19132 -1.36089,2.12988 -2.38132,2.12988 -1.0034,0 -2.07309,0.40247 -2.37711,0.89437 -0.30401,0.4919 -2.24306,1.12926 -4.30901,1.41636 -5.22776,0.72647 -13.93976,3.03942 -14.84028,3.93994 -0.41213,0.41213 -1.54303,0.74933 -2.51311,0.74933 -1.04872,0 -1.89333,0.88489 -2.08333,2.18268 -0.36324,2.48114 -2.52424,3.32091 -13.81955,5.37037 -4.125,0.74846 -9.75,1.85035 -12.5,2.44865 -2.75,0.59831 -6.20479,1.33896 -7.67731,1.6459 -2.01699,0.42042 -3.00119,0.0394 -3.99054,-1.54477 -1.08829,-1.74262 -2.30215,-2.10283 -7.086266,-2.10283 -3.175159,0 -6.554419,0.39476 -7.509449,0.87724 -2.95046,1.49057 -8.76626,3.12276 -11.12698,3.12276 -1.75985,0 -2.1791,-0.48902 -1.92901,-2.25 0.17576,-1.2375 1.32343,-2.6905 2.5504,-3.22888 1.22696,-0.53838 2.46777,-1.59633 2.75736,-2.35099 0.4344,-1.13201 -1.88075,-1.31069 -13.23084,-1.02112 -12.446445,0.31754 -13.757365,0.18815 -13.757365,-1.3579 0,-0.93989 1.54992,-2.85239 3.44428,-4.25 2.188575,-1.61468 2.848105,-2.54111 1.809015,-2.54111 -0.89939,0 -1.917915,0.45734 -2.263385,1.01631 -0.34546,0.55897 -0.96014,0.81111 -1.36596,0.5603 -0.40582,-0.25081 -4.31223,0.59433 -8.6809,1.87808 -24.38423,7.16542 -32.26516,12.84796 -26.43104,19.0581 2.92589,3.11447 1.93543,6.48721 -1.90509,6.48721 -4.19562,0 -7.30038,-3.95788 -7.88604,-10.05298 l -0.4918,-5.11824 5.88546,-5.47834 c 3.237,-3.01308 5.21046,-5.23704 4.38546,-4.94213 -1.62163,0.57968 -5.73492,-2.71788 -7.75,-6.21305 -0.6875,-1.19247 -1.25,-3.74923 -1.25,-5.68169 0,-4.08123 -0.31966,-4.22532 -3.27192,-1.47487 -2.29723,2.1402 -6.41805,3.60467 -7.39475,2.62797 -0.95471003,-0.95472 0.46809,-5.0764 2.50833,-7.26634 1.45665,-1.56353 2.09409,-4.27121 2.64541,-11.23704 0.39949,-5.04744 1.12833,-9.4256 1.61964,-9.72924 0.49131,-0.30365 0.89329,-2.29897 0.89329,-4.43405 0,-2.13508 0.39087,-4.12354 0.8686,-4.41879 0.47773,-0.29526 1.17998,-3.69681 1.56055,-7.55902 0.38057,-3.8622 1.1147,-7.02219 1.6314,-7.02219 0.51669,0 0.93945,-2.025 0.93945,-4.5 0,-2.475 0.41418,-4.5 0.9204,-4.5 0.50622,0 1.23365,-2.925 1.6165,-6.5 0.38285,-3.575 1.09367,-6.5 1.57959,-6.5 0.48593,0 0.88351,-1.575 0.88351,-3.5 0,-1.925 0.41762,-3.5 0.92804,-3.5 0.51042,0 1.23727,-2.475 1.61522,-5.5 0.37795,-3.025 1.08533,-5.5 1.57196,-5.5 0.48663,0 0.88478,-1.09844 0.88478,-2.44098 0,-1.34254 0.39089,-2.68257 0.86864,-2.97784 0.47776,-0.29527 1.16122,-2.36648 1.5188,-4.60269 0.62925,-3.9351 0.98404,-4.9323 3.45643,-9.71492 0.63587,-1.23004 1.15613,-3.05653 1.15613,-4.05887 0,-1.00234 0.66068,-2.69595 1.46819,-3.76357 0.80751,-1.06762 1.48251,-2.95363 1.5,-4.19113 0.0175,-1.2375 0.42429,-2.25 0.904,-2.25 0.4797,0 1.16002,-1.8 1.51181,-4 0.3518,-2.2 1.00032,-4 1.44117,-4 0.44084,0 1.41951,-1.575 2.17483,-3.5 0.75531,-1.925 1.76585,-3.5 2.24566,-3.5 0.4798,0 0.61347,-0.41891 0.29704,-0.9309 -0.31643,-0.512 -0.11799,-1.21356 0.44098,-1.55902 0.55898,-0.34546 1.01632,-1.72656 1.01632,-3.0691 0,-1.34254 0.45,-2.44098 1,-2.44098 0.55,0 1,-0.9 1,-2 0,-1.1 0.40121,-2 0.89159,-2 0.49037,0 1.19529,-1.21005 1.56649,-2.68901 0.37119,-1.47895 1.65747,-4.06059 2.8584,-5.73698 2.49946,-3.48901 6.3323,-10.24406 7.276395,-12.82401 0.35221,-0.9625 0.98912,-1.75 1.41535,-1.75 0.42623,0 1.05732,-1.125 1.40242,-2.5 0.3451,-1.375 1.06889,-2.5 1.60841,-2.5 0.53952,0 0.98095,-0.46964 0.98095,-1.04364 0,-0.57401 1.125,-2.25691 2.5,-3.73979 1.375,-1.48287 2.5,-3.09795 2.5,-3.58906 0,-0.4911 1.0125,-1.77106 2.25,-2.84433 1.2375,-1.07328 2.18958,-2.25106 2.11574,-2.6173 -0.25652,-1.27232 20.521991,-24.16588 21.933291,-24.16588 0.530267,0 2.989122,-2.025 5.464124,-4.5 2.475,-2.475 4.95368,-4.5 5.50818,-4.5 0.55449,0 1.57261,-0.7719 2.26246,-1.71534 1.09908,-1.50308 0.80834,-1.86866 -2.34941,-2.95424 -1.98204,-0.68139 -6.08299,-1.54866 -9.113234,-1.92727 -8.222801,-1.02737 -11.975181,-2.92921 -13.639771,-6.91312 -0.78726,-1.88419 -1.43138,-3.66525 -1.43138,-3.95791 0,-1.1211 5.90245,-0.46376 8.63569,0.96172 1.57537,0.82161 4.501465,1.49661 6.502438,1.5 2.000974,0.003 7.400977,1.08007 11.999997,2.39262 4.59903,1.31255 11.73687,2.65716 15.86187,2.98801 20.73492,1.66308 25.00246,2.31778 27.02209,4.14553 1.78994,1.61986 1.86084,2.02564 0.57813,3.30835 -1.12257,1.12257 -4.51529,1.48637 -14.61198,1.56684 l -13.14994,0.10481 -1.91034,4.1674 c -9.29197,20.27035 -9.25151,48.703 0.0979,68.8326 2.15066,4.63042 2.36822,4.81521 2.94329,2.5 0.39774,-1.60129 1.32303,-2.5 2.57394,-2.5 2.16395,0 4.16296,3.59658 6.94761,12.5 2.88628,9.22834 5.63732,14.90587 7.51075,15.50048 2.18628,0.6939 3.2717,3.53271 5.54387,14.49952 0.96859,4.675 2.85853,10.75 4.19987,13.5 3.1074,6.37078 6.2536,14.60121 6.25426,16.36106 2.7e-4,0.74859 3.15309,5.31435 7.00625,10.14614 7.67141,9.61982 12.72092,16.85468 15.00071,21.4928 0.81103,1.65 2.87369,5.25 4.5837,8 1.71,2.75 5.46169,9.38026 8.3371,14.73391 4.10791,7.64843 5.16931,10.54676 4.95407,13.52787 -0.15066,2.08668 0.0781,4.36363 0.50846,5.05989 1.16798,1.88983 -1.30964,4.48974 -2.96743,3.1139 -0.72175,-0.599 -2.34954,-0.94205 -3.61732,-0.76233 -2.15609,0.30564 -2.07887,0.47098 1.19496,2.55852 1.925,1.22747 4.07774,2.61345 4.78387,3.07995 1.53841,1.01635 0.54817,4.18829 -1.30753,4.18829 -0.72032,0 -1.51057,-0.5625 -1.7561,-1.25 -0.24554,-0.6875 -0.73507,-0.98547 -1.08784,-0.66216 -0.35278,0.32332 -0.15844,1.97331 0.43187,3.66667 1.40049,4.01744 -0.60802,8.0166 -7.33446,14.60373 -7.97963,7.81436 -17.56832,11.33489 -37.22981,13.66908 -25.66995,3.04751 -35.134,4.98901 -44,9.02639 -1.1,0.50092 -6.5,2.04763 -12,3.43714 -5.499995,1.38951 -13.374995,3.62896 -17.499995,4.97655 -15.64101,5.10972 -23.568985,7.53112 -24.518015,7.4884 -0.5401,-0.0243 -2.64142,-0.92065 -4.6696,-1.99188 z M 32.58052,449.66164 c 2.70571,-1.3727 5.81948,-2.53323 6.91948,-2.57895 1.1,-0.0457 1.4375,-0.31011 0.75,-0.58752 -0.7151,-0.28855 -1.25,-2.2611 -1.25,-4.60961 l 0,-4.10523 -1.94399,2.08662 c -1.0692,1.14765 -2.62124,3.7075 -3.44898,5.68857 -1.00514,2.40565 -2.15849,3.60193 -3.47267,3.60193 -2.4722,0 -3.0666,-1.66178 -1.9673,-5.5 0.97601,-3.40773 0.002,-12.08238 -1.21586,-10.82518 -0.43953,0.45385 -1.7257,3.28129 -2.85815,6.28321 -1.98375,5.25855 -1.99566,5.59567 -0.32603,9.2242 0.95314,2.0714 2.21921,3.77778 2.8135,3.79197 0.59428,0.0142 3.29428,-1.09732 6,-2.47001 z m 15.62242,-4.40372 c 1.26338,-0.49475 4.20956,-1.41281 6.54706,-2.04014 4.284875,-1.14997 5.029115,-2.30932 3.24846,-5.06033 -0.81334,-1.25656 -1.34479,-1.03658 -3.27468,1.35551 -2.14036,2.65295 -2.40487,2.73368 -3.72906,1.13813 -0.78392,-0.94456 -1.29786,-3.19659 -1.14209,-5.00452 0.35731,-4.14738 -1.5632,-5.53636 -2.46121,-1.78002 -0.36696,1.535 -0.99271,3.2409 -1.39055,3.7909 -1.1617,1.60599 -1.96064,8.5 -0.98506,8.5 0.48955,0 1.92375,-0.40479 3.18713,-0.89953 z m 95.29912,-101.68559 c -0.82583,-2.70319 -1.97811,-7.83906 -2.56062,-11.41306 -0.58818,-3.60878 -1.87187,-7.38828 -2.88699,-8.5 C 136.15211,321.57591 131,311.20904 131,309.4646 c 0,-2.49798 -3.45334,-7.52901 -5.77346,-8.41112 -2.24141,-0.85218 -3.04202,-0.50563 -6.39438,2.76786 -2.10769,2.0581 -3.83216,4.30332 -3.83216,4.98937 0,0.68605 -0.58678,1.60722 -1.30395,2.04705 -0.71718,0.43983 -2.07962,2.37469 -3.02765,4.29969 -2.17266,4.41164 -3.95804,7.34265 -4.90334,8.04971 -0.40422,0.30234 -1.02297,1.98984 -1.375,3.75 -0.62435,3.12175 -0.55254,3.20029 2.92592,3.20029 1.96129,0 3.8441,0.45 4.18402,1 0.33992,0.55 1.91492,1 3.5,1 1.58508,0 3.13588,0.41084 3.44622,0.91299 0.31034,0.50214 2.3619,1.21669 4.55902,1.5879 2.19712,0.3712 3.99992,0.97285 4.00623,1.33701 0.006,0.36415 1.80631,1.522 4,2.57298 2.19369,1.05099 3.98853,2.28849 3.98853,2.75 0,0.46152 0.58672,0.83912 1.30383,0.83912 0.71711,0 2.82385,1.56826 4.68165,3.48502 1.8578,1.91676 3.52188,3.34095 3.69796,3.16488 0.17608,-0.17608 -0.35554,-2.53184 -1.18138,-5.23502 z m 239.71652,152.0455 c -2.90479,-1.35832 -9.38714,-3.38419 -14.40523,-4.50196 -9.64083,-2.14746 -20.64111,-5.34186 -24.81335,-7.20562 -5.08751,-2.27261 -9.5552,-3.72298 -11.5,-3.73329 -1.1,-0.006 -5.6,-1.08813 -10,-2.40511 -11.89386,-3.55997 -17.5189,-4.70853 -27.75362,-5.66693 -10.91947,-1.02252 -22.18107,-3.36723 -25.13715,-5.23366 -1.16007,-0.73247 -4.2645,-2.13672 -6.89872,-3.12057 -6.04978,-2.25952 -10.25544,-5.78091 -12.75436,-10.67919 -2.36135,-4.62864 -2.47705,-7.72535 -0.39945,-10.69154 1.40894,-2.01155 1.40894,-2.22251 0,-2.22251 -2.5146,0 -1.82757,-1.50693 2.68302,-5.88492 l 4.23971,-4.11508 -7.27126,0 c -4.90651,0 -9.29362,0.70957 -13.48972,2.18183 -4.34701,1.52521 -8.62604,2.19081 -14.21845,2.21167 -8.329,0.0311 -18.51118,-1.22639 -18.48469,-2.28279 0.0657,-2.61987 6.53455,-5.08624 13.55569,-5.16836 2.71095,-0.0317 8.079,-0.87605 11.929,-1.87632 l 7,-1.81867 0.60942,-6.87368 c 0.9828,-11.08519 3.63865,-23.1433 5.91903,-26.87368 0.33621,-0.55 1.22907,-3.025 1.98412,-5.5 0.75505,-2.475 3.08611,-6.58745 5.18012,-9.13878 3.68145,-4.48544 4.70976,-6.86122 2.96973,-6.86122 -0.46067,0 -1.68004,-2.5875 -2.70971,-5.75 -1.02967,-3.1625 -2.18749,-6.2 -2.57293,-6.75 -0.38545,-0.55 -1.01315,-2.67147 -1.3949,-4.71437 -0.38175,-2.04291 -1.35169,-4.26013 -2.15542,-4.92717 -0.80373,-0.66704 -2.13698,-2.51935 -2.96277,-4.11625 C 238.66889,338.61648 235,327.52952 235,325.68217 c 0,-0.66811 -0.9,-2.02923 -2,-3.02472 -1.1,-0.99549 -2,-2.55023 -2,-3.45499 0,-0.90475 -0.42419,-2.07251 -0.94265,-2.59501 -0.89198,-0.89894 -1.82075,-4.07524 -4.22525,-14.45 -0.57361,-2.475 -2.09156,-5.625 -3.37322,-7 -2.86742,-3.07625 -5.3621,-8.81452 -8.92115,-20.52047 -3.81943,-12.56238 -4.25966,-13.52347 -5.90519,-12.89202 -2.13746,0.82022 -5.09879,-2.9381 -9.84822,-12.4987 -4.14399,-8.34187 -4.2773,-8.91512 -4.63657,-19.93808 -0.36733,-11.27024 1.52627,-23.73865 4.08547,-26.90073 1.33663,-1.65152 0.73055,-1.5775 -3.21983,0.39321 -1.81164,0.90376 -5.81828,1.69126 -8.90364,1.75 -4.92039,0.0937 -5.60975,-0.13141 -5.60975,-1.83162 0,-1.43634 2.41181,-3.17839 9.3117,-6.72583 5.12143,-2.63309 10.52143,-5.633 12,-6.66647 4.55562,-3.18422 26.61475,-14.07104 35.07038,-17.30825 2.9221,-1.11872 6.11792,-0.22737 6.11792,1.70635 0,1.59557 5.49905,2.05219 6.43703,0.5345 0.30528,-0.49396 3.70684,-1.21463 7.55902,-1.60149 3.85217,-0.38686 7.00395,-1.10771 7.00395,-1.60189 0,-0.49418 1.32344,-0.89851 2.94098,-0.89851 1.61754,0 3.19851,-0.41668 3.51326,-0.92596 0.31476,-0.50929 4.61631,-1.24233 9.55902,-1.62899 4.94271,-0.38666 8.98674,-1.09498 8.98674,-1.57403 0,-0.47906 1.725,-0.87102 3.83333,-0.87102 2.10834,0 4.17017,-0.3375 4.58185,-0.75 0.41168,-0.4125 2.39918,-1.21193 4.41667,-1.77651 2.93394,-0.82105 3.73148,-1.57164 3.98457,-3.75 0.17403,-1.49792 -0.16347,-2.72349 -0.75,-2.72349 -0.60711,0 -1.06642,-2.06735 -1.06642,-4.8 0,-2.64 -0.52779,-5.32779 -1.17287,-5.97287 -0.89717,-0.89717 -0.89717,-1.77799 0,-3.74706 0.64508,-1.4158 1.17287,-4.10144 1.17287,-5.96811 0,-1.86666 0.40015,-3.64123 0.88922,-3.94349 0.48907,-0.30227 1.18924,-1.79132 1.55594,-3.30902 0.93284,-3.86089 2.91365,-8.25945 3.7195,-8.25945 0.37203,0 0.96269,-1.30334 1.31257,-2.89631 0.34987,-1.59297 1.51062,-3.68771 2.57945,-4.65499 1.06883,-0.96727 1.94332,-2.20271 1.94332,-2.74542 0,-1.08053 4.52755,-5.50186 7.57739,-7.39962 5.05194,-3.143562 11.24394,-6.14899 11.70947,-5.68346 0.28511,0.28511 1.3497,0.0897 2.36576,-0.43424 5.34241,-2.754854 7.60127,-3.340302 15.37118,-3.983879 7.95456,-0.65887 20.86363,0.388297 21.9762,1.78268 0.275,0.344657 2.6295,1.612627 5.23222,2.817709 C 384.8154,99.544978 393,107.58327 393,110.48157 c 0,4.88468 -2.19925,8.16526 -7.0365,10.49624 -4.37307,2.1073 -5.71729,2.26572 -14.63936,1.72534 -24.62801,-1.49164 -32.46675,-0.49822 -38.12181,4.83123 -5.05971,4.7684 -6.20233,7.92864 -6.20233,17.15426 0,6.0902 0.38918,8.54691 1.5,9.46881 1.02845,0.85354 1.89295,0.92723 2.75,0.23442 0.6875,-0.55576 3.69394,-1.33929 6.68097,-1.74118 2.98703,-0.40188 6.86799,-1.53782 8.62435,-2.52431 1.75636,-0.98649 5.72493,-2.10992 8.81903,-2.4965 3.09411,-0.38658 5.62565,-1.10103 5.62565,-1.58765 0,-0.48663 1.575,-0.88478 3.5,-0.88478 1.925,0 3.5,-0.44143 3.5,-0.98095 0,-0.53952 1.125,-1.2633 2.5,-1.60841 1.375,-0.3451 2.5,-1.02867 2.5,-1.51905 0,-0.49037 1.575,-0.89159 3.5,-0.89159 1.925,0 3.5,-0.39203 3.5,-0.87117 0,-0.47914 2.28926,-1.17485 5.08725,-1.54602 4.56522,-0.60559 8.52549,-2.06612 9.91275,-3.65575 0.90013,-1.03144 4.46963,-2.24761 5.89352,-2.00798 0.76644,0.12898 1.66644,-0.16099 2,-0.64439 0.96317,-1.39581 7.703,-4.27469 10.00761,-4.27469 1.15438,0 2.09887,-0.47989 2.09887,-1.06642 0,-0.58653 1.2375,-0.92403 2.75,-0.75 2.12664,0.24469 2.81923,0.91389 3.0554,2.9522 0.25145,2.17015 -1.42681,4.39583 -9.5,12.59869 -11.03777,11.21508 -16.42508,15.66061 -24.0763,19.86745 l -5.27091,2.89808 4.27091,0.5 c 3.48568,0.40807 4.32976,0.91449 4.59104,2.75447 0.21096,1.48565 -0.30057,2.45433 -1.5,2.84055 -7.05541,2.2718 -17.13156,7.30456 -19.95399,9.96645 -2.92616,2.75972 -3.3668,3.8128 -3.3711,8.05661 -0.003,2.68505 0.78478,7.13192 1.75,9.88192 2.15122,6.12902 9.56273,13.96941 14.15968,14.97908 6.43259,1.41283 4.82245,5.98941 -2.49317,7.08645 l -4.4249,0.66356 2.97198,3.03981 2.97198,3.03981 6.2936,-3.09833 6.2936,-3.09833 -0.36079,-11.36576 c -0.26204,-8.25446 0.0483,-12.57604 1.13373,-15.78702 3.17716,-9.39895 8.01278,-7.42397 7.7993,3.18542 -0.14062,6.98836 1.48102,17.67683 3.39172,22.35531 0.67386,1.65 2.27105,5.7 3.54931,9 3.6234,9.35429 8.49798,16.40529 12.49651,18.07598 2.24941,0.93986 3.4724,2.12538 3.4724,3.36601 0,2.83423 -2.59523,4.97264 -5.23241,4.31138 -4.15147,-1.04097 -10.51257,-6.14268 -13.05997,-10.47432 -1.38406,-2.35348 -3.45948,-5.3604 -4.61205,-6.68206 -1.15256,-1.32166 -2.10988,-2.89666 -2.12737,-3.5 -0.0175,-0.60334 -0.66797,-1.93696 -1.44551,-2.96359 -1.36756,-1.80569 -1.58374,-1.78187 -6.6242,0.72989 -3.31761,1.65324 -6.06203,2.38278 -7.55449,2.0082 -2.66245,-0.66823 -2.86616,-0.18047 -1.10345,2.64208 0.97291,1.55788 0.97988,2.40382 0.0323,3.92111 -1.04896,1.67965 -0.91589,1.97625 1.00946,2.25 3.54119,0.5035 3.39469,4.19027 -0.25842,6.50325 -2.90692,1.84053 -2.98042,2.03689 -1.30234,3.47929 3.79525,3.26223 14.51449,4.77708 26.4798,3.74215 7.95577,-0.68813 8.79689,2.97169 1.54485,6.72187 -2.0339,1.05177 -5.48867,1.4399 -11.57283,1.30016 -4.77036,-0.10956 -10.36088,-0.14926 -12.42338,-0.0882 -2.0625,0.061 -3.75,-0.3287 -3.75,-0.8661 10e-6,-0.53741 -0.43001,-0.9771 -0.95558,-0.9771 -0.52558,0 -2.61337,-1.125 -4.63955,-2.5 -2.9398,-1.995 -4.92381,-2.5 -9.8219,-2.5 -3.8111,0 -6.94201,-0.56319 -8.25898,-1.48563 -1.88797,-1.32238 -2.18712,-1.3134 -2.72251,0.0818 -0.33081,0.86208 -0.60147,3.97905 -0.60147,6.92661 0,2.94756 -0.45,5.63731 -1,5.97723 -0.55,0.33992 -1,1.86648 -1,3.39235 0,1.52587 -0.3375,3.11182 -0.75,3.52432 -0.4125,0.4125 -0.78365,1.05 -0.82478,1.41666 -0.57039,5.08521 -1.8393,10.16666 -2.53876,10.16666 -0.48755,0 -0.88646,0.59356 -0.88646,1.31903 0,0.72547 -3.98772,5.11297 -8.8616,9.75 -10.34296,9.84036 -10.48525,9.95372 -15.3884,12.26053 -2.0625,0.97035 -3.75,2.19316 -3.75,2.71736 0,0.52419 -0.9,0.95308 -2,0.95308 -1.1,0 -2,0.41425 -2,0.92054 0,0.5063 -1.44773,1.23852 -3.21718,1.62716 -1.76944,0.38864 -4.13194,1.21189 -5.25,1.82946 -1.11805,0.61756 -2.15591,1.17093 -2.30636,1.22971 -0.15044,0.0588 0.0102,0.84628 0.35699,1.75 0.67406,1.75658 3.92668,2.24477 4.86293,0.72989 0.64097,-1.03712 10.4709,-6.08676 11.84884,-6.08676 0.91912,0 6.76641,-2.40663 9.97664,-4.10619 0.97453,-0.51594 3.79931,-1.21596 6.2773,-1.5556 2.47799,-0.33965 4.74471,-1.00469 5.03716,-1.47788 0.29244,-0.47318 2.9536,-0.86033 5.91368,-0.86033 2.96008,0 5.66008,-0.45 6,-1 0.33992,-0.55 3.48992,-1 7,-1 3.51008,0 6.66008,0.45 7,1 0.33992,0.55 2.39148,1 4.55902,1 2.16754,0 3.94098,0.45 3.94098,1 0,0.55 1.125,1 2.5,1 1.375,0 2.5,0.56515 2.5,1.25589 0,1.51488 4.51411,3.62872 9.46471,4.4321 1.98777,0.32257 4.16574,1.31223 4.83993,2.19925 0.67419,0.88702 2.11895,2.1118 3.21058,2.72175 2.46202,1.37564 2.54604,3.32306 0.20631,4.78202 -1.37349,0.85646 -1.98731,0.77402 -2.69562,-0.36205 -0.50444,-0.80907 -1.17067,-1.21754 -1.48051,-0.9077 -0.30983,0.30984 0.77768,1.96659 2.4167,3.68166 1.63901,1.71508 3.2679,4.26529 3.61974,5.66715 0.35185,1.40185 1.03987,2.79613 1.52894,3.0984 1.51689,0.93748 1.01584,9.63414 -0.66187,11.48798 -0.8531,0.94267 -1.67547,2.7781 -1.8275,4.07874 -0.29919,2.55969 -1.22985,5.35787 -2.69441,8.10124 -0.50985,0.95504 -0.927,2.64254 -0.927,3.75 0,1.10746 -0.41018,2.01357 -0.91152,2.01357 -0.50133,0 -0.79459,0.7875 -0.65169,1.75 0.23445,1.57918 -1.10342,4.96645 -2.46858,6.25 -0.29248,0.275 -2.09248,3.57396 -4,7.33102 -1.90751,3.75706 -3.91242,7.69456 -4.45534,8.75 -0.54292,1.05544 -1.33042,1.91898 -1.75,1.91898 -0.41958,0 -0.76287,0.9 -0.76287,2 0,1.1 -0.39752,2 -0.88337,2 -0.48585,0 -1.15561,0.7875 -1.48835,1.75 -0.33274,0.9625 -1.50527,3.1 -2.60562,4.75 -1.10035,1.65 -2.31186,3.675 -2.69224,4.5 -0.38038,0.825 -1.57919,2.2875 -2.66402,3.25 -1.08483,0.9625 -1.60882,1.75 -1.16442,1.75 0.4444,0 -0.009,0.9031 -1.00821,2.00689 -2.07148,2.28895 -4.1688,5.68256 -5.09442,8.24311 -0.34794,0.9625 -1.03013,1.75 -1.51598,1.75 -0.48585,0 -0.88337,0.82156 -0.88337,1.82569 0,3.09506 4.12718,5.91581 9.75,6.66369 2.8875,0.38406 5.25,1.10607 5.25,1.60446 0,0.49839 1.52252,0.90616 3.38337,0.90616 2.54236,0 3.51337,0.49714 3.90638,2 0.38065,1.4556 1.36401,2 3.61265,2 2.93584,0 14.46899,3.45987 16.5976,4.97917 0.55,0.39257 5.43069,2.40951 10.84597,4.4821 12.42842,4.75674 16.65403,8.22711 16.65403,13.67751 0,2.16237 -0.7875,5.13679 -1.75,6.60982 -2.48663,3.80559 -5.80673,7.2514 -6.98686,7.2514 -0.55414,0 -1.28153,1.71357 -1.61644,3.80794 -0.85447,5.34358 -3.97359,7.81893 -10.8967,8.64766 -5.55358,0.6648 -5.74868,0.60899 -5.71148,-1.63364 0.0249,-1.50152 1.16934,-3.03337 3.23888,-4.33534 3.81453,-2.39977 4.53472,-4.93176 2.15171,-7.56495 -1.4211,-1.5703 -8.74502,-6.02806 -19.42911,-11.82568 -0.825,-0.44768 -1.5,-1.88992 -1.5,-3.20498 0,-2.02068 0.55508,-2.43755 3.58387,-2.69147 5.65848,-0.47439 18.3708,5.79952 24.09009,11.88917 l 4.67396,4.97664 0.68181,-5.45703 c 0.375,-3.00136 0.36784,-5.96503 -0.0159,-6.58594 -0.68871,-1.11436 -10.96615,-6.02238 -12.61092,-6.02238 -0.46653,0 -3.22304,-1.06466 -6.12557,-2.36592 -9.35038,-4.19192 -19.34369,-7.66495 -21.84834,-7.59307 -0.78595,0.0226 0.52013,1.80371 2.90239,3.9581 4.84017,4.37719 5.35702,7.67451 1.1374,7.25608 -1.35783,-0.13465 -7.30629,-0.53587 -13.21879,-0.89161 -11.36179,-0.68362 -13.15156,0.0168 -8.25,3.22838 4.29325,2.81304 2.67694,7.7504 -1.84535,5.63701 -3.62346,-1.69335 -14.42651,-4.22897 -18.01758,-4.22897 -2.30486,0 -3.83316,0.65621 -4.7651,2.04601 -1.34943,2.0124 -1.51984,2.01968 -10.37197,0.44286 -4.95,-0.88173 -11.25,-2.04618 -14,-2.58766 -2.75,-0.54148 -6.46918,-1.24078 -8.26484,-1.554 -1.82286,-0.31796 -4.16006,-1.70757 -5.29173,-3.14625 -1.97649,-2.51271 -11.10731,-6.25872 -18.75051,-7.69259 -1.89152,-0.35485 -4.17124,-1.02054 -5.06603,-1.47931 -0.89479,-0.45877 -3.65189,-1.38368 -6.12689,-2.05536 -9.00682,-2.4443 -10.98284,-3.13691 -11.54509,-4.04666 -1.44363,-2.33584 -3.22215,-0.64186 -3.80715,3.6262 -0.78938,5.75915 0.9089,8.55283 6.62424,10.89694 2.3254,0.95374 5.578,2.35937 7.228,3.12362 4.52446,2.09564 14.40925,4.42171 18.9601,4.46167 6.41383,0.0563 27.38866,3.76932 32.59779,5.77054 4.4119,1.69495 9.36971,3.022 13.94211,3.73186 2.475,0.38424 5.74646,1.3366 7.2699,2.11635 4.15474,2.12653 19.60897,7.00645 24.7301,7.80893 6.85324,1.0739 13.9203,3.29227 17.82214,5.59442 3.87028,2.28352 7.56667,1.97755 8.59866,-0.71176 1.03214,-2.68974 -4.09942,-7.11754 -13.4208,-11.58023 -9.75719,-4.67132 -12,-6.33859 -12,-8.92057 0,-1.42861 0.7611,-1.84501 3.37236,-1.84501 3.5405,0 17.86316,4.30787 19.92592,5.99317 0.66095,0.54001 3.22605,2.47234 5.70024,4.29408 4.03374,2.97003 4.58761,3.87191 5.36075,8.72911 0.70952,4.45742 0.54168,6.0121 -0.9476,8.77752 -3.55194,6.59554 -11.85671,8.03231 -21.19309,3.6665 z M 297.83333,298.08351 c 0.18334,-0.50933 1.42084,-0.92606 2.75,-0.92606 1.32917,0 2.41667,-0.40122 2.41667,-0.89159 0,-0.49038 1.125,-1.17395 2.5,-1.51905 1.375,-0.34511 2.5,-1.06889 2.5,-1.60841 0,-0.53952 0.54835,-0.98095 1.21855,-0.98095 1.50391,0 11.78145,-10.02773 11.78145,-11.49508 0,-0.58487 0.89797,-1.71062 1.99549,-2.50167 1.09752,-0.79105 2.27354,-2.92036 2.61337,-4.73181 0.33982,-1.81144 1.01685,-3.54012 1.5045,-3.8415 C 327.60101,269.286 328,268.20347 328,267.18177 c 0,-1.02171 0.50105,-2.02467 1.11345,-2.2288 0.65562,-0.21854 1.32722,-4.12041 1.63335,-9.48946 l 0.51991,-9.11831 -6.88336,-0.64125 c -3.78584,-0.35268 -7.66474,-1.06992 -8.61978,-1.59387 -0.95504,-0.52395 -11.5947,-0.95263 -23.6437,-0.95263 l -21.90728,0 0.91159,4.25 c 0.50137,2.3375 1.30765,5.15 1.79174,6.25 0.48409,1.1 1.60104,3.64301 2.48212,5.65113 0.88108,2.00812 1.60196,4.59562 1.60196,5.75 0,1.15438 0.34015,2.09887 0.75589,2.09887 0.98403,0 3.02258,4.64237 3.84563,8.7576 0.35666,1.78332 0.93238,3.2424 1.27937,3.2424 0.76597,0 2.76209,4.48525 3.67158,8.25 0.36539,1.5125 1.06556,2.75 1.55594,2.75 0.49037,0 0.89159,0.9 0.89159,2 0,1.1 0.41425,2 0.92054,2 0.5063,0 1.22535,1.38773 1.59788,3.08384 0.60175,2.73977 0.97323,3.01046 3.32945,2.42607 1.45867,-0.36178 2.80213,-1.07451 2.98546,-1.58385 z m 81.64368,-58.96326 c -0.57022,-0.92264 -10.13793,-5.9628 -11.31915,-5.9628 -0.25731,0 0.38941,0.96148 1.43715,2.13663 2.9033,3.25632 11.61431,6.62911 9.882,3.82617 z M 29.54122,489.66745 c -2.53313,-2.07021 -3.0451,-3.3209 -3.5588,-8.69381 -0.59481,-6.22129 -0.56648,-6.31212 3.26465,-10.46841 4.46195,-4.84064 15.60219,-10.61271 20.75293,-10.75267 2.85336,-0.0775 3.55647,0.30104 3.80569,2.04914 0.24597,1.72533 -1.21928,3.08019 -7.5,6.93494 -11.63131,7.13864 -14.57446,11.69802 -10.94039,16.9483 0.75091,1.08488 1.68124,2.98501 2.06738,4.22251 0.61518,1.97147 0.35332,2.24555 -2.1153,2.21404 -1.54956,-0.0198 -4.14883,-1.1241 -5.77616,-2.45404 z M 439.26137,278.30469 c -4.29804,-1.67033 -14.56209,-10.62418 -17.74186,-15.47713 -1.93716,-2.95646 -1.43926,-5.67011 1.04035,-5.67011 0.89244,0 4.5945,2.46678 8.22679,5.48172 8.52986,7.08014 13.78579,9.5223 20.45245,9.50322 13.66202,-0.0391 23.47707,-8.85608 25.2647,-22.69562 0.52577,-4.07041 1.12941,-5.35552 2.75843,-5.87255 3.0806,-0.97774 4.74149,2.02451 4.71581,8.52436 -0.0292,7.38757 -2.54418,12.60551 -9.26261,19.21746 -4.01999,3.95627 -6.95453,5.86676 -10.9422,7.12376 -6.8727,2.16643 -18.75819,2.10091 -24.51186,-0.13511 z m -9.22619,-28.0815 c -1.5171,-2.83474 -1.26794,-4.22026 0.71482,-3.97491 1.65674,0.205 2.88943,-0.12266 7.87223,-2.09253 1.16723,-0.46145 3.19223,-3.01234 4.5,-5.66865 2.33612,-4.74505 2.37693,-5.32015 2.32998,-32.82965 -0.0426,-24.97379 -0.25242,-28.54039 -1.94103,-33 -2.6832,-7.08629 -4.10768,-9.03347 -9.50923,-12.99857 -5.99873,-4.40347 -10.83365,-4.58895 -21.93543,-0.84149 -7.01008,2.36628 -8.22665,2.51637 -11.01955,1.35952 -4.26505,-1.76665 -3.56598,-3.73099 2.45303,-6.89287 8.26307,-4.34074 14.58869,-6.13679 21.59496,-6.13154 5.9614,0.004 7.17348,0.37886 12.61682,3.89706 6.08939,3.93577 9.6488,7.83545 12.75753,13.97717 l 1.70542,3.36928 6.16263,-0.67252 c 3.38945,-0.36989 7.51264,-1.08876 9.16264,-1.59748 1.65,-0.50872 6.15,-1.64489 10,-2.52482 19.17122,-4.38165 40.20679,-14.22315 54.49968,-25.49769 9.21924,-7.27234 12.78257,-12.04258 13.17067,-17.63163 0.45662,-6.57588 -0.19954,-8.35464 -4.72917,-12.82014 -3.91886,-3.86339 -5.13818,-4.49428 -8.68611,-4.49428 -4.00206,0 -11.41365,1.49609 -22.75507,4.5933 -7.01129,1.9147 -11.25291,2.99103 -17.5,4.4407 -2.75,0.63815 -7.25,1.83144 -10,2.65175 -2.75,0.8203 -6.35,1.8592 -8,2.30866 -11.15972,3.03988 -19.2299,5.83062 -27.5,9.50975 -8.41416,3.74321 -20.05942,6.425 -19.97069,4.59905 0.17198,-3.53899 19.39441,-15.50764 29.15634,-18.1539 2.37289,-0.64324 5.21435,-1.52024 6.31435,-1.94889 2.70084,-1.05247 26.307,-7.47079 35,-9.51621 3.85,-0.90589 7.9,-2.032142 9,-2.502782 2.9331,-1.254958 6.72077,-2.365298 9,-2.638308 1.1,-0.13176 5.6,-0.890632 10,-1.686378 10.98298,-1.986287 14.94828,-0.881099 22.10319,6.160488 5.79646,5.70465 9.39681,11.61767 9.39681,15.43283 0,3.52562 -2.96363,14.20408 -4.04735,14.58327 -0.52396,0.18334 -0.95265,0.78644 -0.95265,1.34023 0,1.56384 -5.37201,8.78114 -6.55383,8.80509 -0.57961,0.0117 -2.58039,1.59635 -4.44617,3.52135 -1.86578,1.925 -3.9464,3.5 -4.62359,3.5 -0.67719,0 -2.0695,1.0125 -3.09403,2.25 -2.59414,3.13339 -12.36865,8.75 -15.22752,8.75 -0.58017,0 -1.05486,0.34015 -1.05486,0.75589 0,0.83433 -1.91513,1.66744 -13,5.65522 -4.125,1.48397 -8.85,3.2998 -10.5,4.03519 -1.65,0.73539 -5.7,1.85159 -9,2.48046 -26.28317,5.00868 -28.5,5.66889 -28.5,8.48783 0,2.3105 0.0916,2.32909 8.98167,1.8222 C 473.48116,181.8526 476,182.6546 476,186.22088 c 0,2.50544 -1.72226,3.34397 -6.31195,3.07316 -2.14981,-0.12685 -6.33409,0.31214 -9.2984,0.97552 L 455,191.47571 l -0.006,13.59087 c -0.003,7.47498 -0.295,17.30337 -0.64822,21.84087 l -0.64222,8.25 7.18146,0 c 8.90417,0 14.11186,-2.44165 22.37335,-10.48985 6.13709,-5.97865 9.69426,-12.02043 12.88942,-21.89242 2.4198,-7.47636 1.89581,-12.09218 -2.1969,-19.35258 -4.43718,-7.87149 -3.80578,-10.12302 1.83428,-6.54093 6.83711,4.34235 10.62456,11.78218 9.92318,19.49249 -0.46349,5.09517 -2.62517,13.75306 -3.69106,14.78329 -0.28451,0.275 -2.25481,3.875 -4.37844,8 -3.00444,5.83591 -5.50057,8.94221 -11.24996,14 -4.06385,3.575 -9.14237,7.24931 -11.28561,8.16514 -6.05834,2.5888 -13.91796,3.23655 -18.80811,1.55006 l -4.20482,-1.45014 -2.45594,3.71118 c -3.00655,4.54321 -7.951,7.02376 -14.00037,7.02376 -3.48852,0 -4.80756,-0.45569 -5.59887,-1.93426 z M 47,195.77917 c -11.48677,-6.01282 -12.89279,-9.12434 -12.95611,-28.67172 -0.0241,-7.4525 0.36401,-13.9775 0.86256,-14.5 0.49855,-0.5225 1.85117,-4.0434 3.00583,-7.82423 2.49476,-8.16885 5.93531,-14.62577 7.7933,-14.62577 0.73551,0 1.86813,1.16505 2.51692,2.589 0.99318,2.17979 0.83989,3.24669 -0.96985,6.75 -4.24096,8.20973 -5.61749,15.36506 -5.39214,28.02892 0.27893,15.67512 1.03625,17.37478 9.5547,21.44381 3.67102,1.75355 7.700565,3.18827 8.954535,3.18827 2.91574,0 15.61606,-4.29387 22.22993,-7.51575 2.80482,-1.36634 5.81576,-2.48425 6.69098,-2.48425 0.87522,0 1.86943,-0.45 2.20935,-1 1.15711,-1.87226 6.362804,-1.12486 7.544515,1.08319 0.889426,1.6619 0.764083,2.47082 -0.619803,4 -0.954081,1.05424 -2.326612,1.91681 -3.050069,1.91681 -0.723457,0 -3.691213,1.08109 -6.595013,2.40242 -15.15902,6.89789 -18.23631,7.84406 -26.77963,8.23391 C 53.91335,199.16278 53.1839,199.01618 47,195.77917 z m 15.442705,-11.03996 c -2.22456,-1.62664 -2.20932,-1.6481 2.8073,-3.9528 2.0625,-0.94754 3.75,-2.20478 3.75,-2.79386 0,-0.58909 -1.2375,-2.5395 -2.75,-4.33425 -5.72546,-6.79388 -9.774195,-11.76951 -10.445635,-12.83699 -1.3363,-2.1245 -1.83075,0.0978 -2.16898,9.74837 -0.24477,6.98375 -0.76665,10.1476 -1.85309,11.23404 -1.34982,1.34982 -1.74183,1.22065 -3.64733,-1.20181 -1.5991,-2.03292 -2.13819,-4.12357 -2.14779,-8.32932 -0.0158,-6.93193 2.74286,-19.29542 5.47224,-24.52475 3.9602,-7.5875 8.254525,-7.24093 6.28777,0.50745 -1.11651,4.39873 -0.70165,5.18614 5.191535,9.85363 l 3.63112,2.8759 -0.0349,-15.47162 c -0.028,-12.42027 -0.27286,-15.11505 -1.24137,-13.66368 -3.78059,5.66542 -4.08348,5.89431 -5.69843,4.30622 -1.694015,-1.66583 -1.708915,-1.62755 4.17838,-10.73299 3.85612,-5.96398 11.65097,-12.70013 13.75977,-11.8909 2.27645,0.87355 1.73178,4.27195 -1.03327,6.44694 -1.375,1.08158 -2.5,2.9573 -2.5,4.16829 0,2.24392 2.49299,7.39444 4.75,9.81348 0.6875,0.73686 1.25,1.75246 1.25,2.25689 0,1.96796 6.72743,8.77717 15.749995,15.94143 l 5.25,4.1687 0,-16.01996 c 0,-8.81099 0.38411,-17.06177 0.85357,-18.33507 0.46947,-1.27331 1.14456,-3.51881 1.50021,-4.99001 l 0.64663,-2.67491 -9.000204,-0.70408 c -6.698511,-0.52401 -9.000201,-1.06102 -9.000201,-2.09984 0,-2.1607 4.54571,-3.39199 12.923057,-3.50043 7.749898,-0.10033 13.756328,0.7379 15.576938,2.17382 0.55,0.43379 2.125,0.94433 3.5,1.13453 1.71806,0.23766 2.5,0.97137 2.5,2.34582 0,1.70765 -0.76742,2.04418 -5.25,2.30226 -3.25965,0.18767 -5.24139,0.75634 -5.22729,1.5 0.0125,0.65876 1.63896,4.12274 3.61436,7.69774 1.97541,3.575 4.19211,7.625 4.92601,9 0.73389,1.375 3.38243,4.89924 5.88564,7.83165 4.30886,5.04767 4.55128,5.18701 4.55128,2.61602 0,-1.4936 0.41619,-4.34284 0.92486,-6.33165 0.50867,-1.98881 1.68418,-7.21602 2.61224,-11.61602 0.92807,-4.4 2.08688,-8.78139 2.57515,-9.73643 1.83735,-3.59384 1.13516,-4.69491 -2.35565,-3.69376 -5.06357,1.45221 -6.7566,1.17249 -6.7566,-1.11632 0,-1.27065 1.19766,-2.69233 3.15908,-3.75 3.43396,-1.85171 21.02777,-13.319611 21.84092,-14.236226 1.66024,-1.871486 7.36282,-5.114172 11.41046,-6.488381 10.03462,-3.40684 14.28838,0.289339 5.36988,4.665989 -2.90419,1.425196 -7.12826,4.113138 -9.38683,5.973198 -2.25857,1.86006 -5.40857,4.37307 -7,5.58446 -1.81625,1.38252 -2.50781,2.49942 -1.85753,3 0.56979,0.43861 2.97311,4.62247 5.34072,9.29747 3.34323,6.60145 6.12015,10.28688 12.4325,16.5 6.7758,6.66929 8.19249,7.66732 8.51689,6 0.21402,-1.1 0.72881,-2.45 1.14398,-3 0.87465,-1.15871 3.29413,-9.30859 5.38931,-18.1536 0.80171,-3.38448 3.74882,-10.48094 6.54914,-15.7699 2.80031,-5.28896 5.09148,-10.018468 5.09148,-10.510004 0,-0.491536 -2.3625,-0.702344 -5.25,-0.468461 -7.0452,0.57065 -11.164,-0.645224 -11.56955,-3.41535 -0.2738,-1.870144 0.15672,-2.182681 3.0066,-2.182681 1.82938,0 4.80286,-0.423514 6.60773,-0.941143 3.88424,-1.113987 22.04009,1.28727 26.26942,3.474342 3.3267,1.720301 4.27998,3.936264 2.37388,5.518192 -1.39895,1.161025 -2.40574,1.073799 -10.6396,-0.921787 l -3.70152,-0.897114 0.50253,6.633756 c 0.92912,12.2651 6.76139,29.34805 12.80794,37.51494 1.27,1.71535 2.93272,4.58131 3.69494,6.36881 0.76222,1.7875 1.62129,3.25 1.90905,3.25 1.50305,0 4.9507,-12.51781 5.50838,-20 0.34846,-4.675 1.24071,-10.525 1.98279,-13 2.95932,-9.86995 2.86181,-10.62307 -1.77901,-13.739882 -7.88239,-5.293873 -5.25188,-9.141169 3.60147,-5.26739 14.75307,6.4552 17.41596,8.496222 24.14606,18.507192 9.22738,13.72565 10.64122,18.0554 8.3706,25.63406 -1.87322,6.25226 -4.78948,4.25215 -4.82806,-3.31132 -0.0182,-3.56713 -5.89072,-14.67715 -10.00185,-18.92212 l -3.29331,-3.40054 0.66934,3 c 0.36815,1.65 1.12184,6.825 1.67487,11.5 0.55304,4.675 1.41793,10.075 1.92198,12 0.50405,1.925 1.16515,4.7091 1.4691,6.18688 0.44348,2.15617 1.19233,2.74873 3.79124,3 4.97352,0.48086 4.50898,2.91274 -1.16238,6.0851 -4.06619,2.27447 -5.68489,2.65535 -9.01911,2.12219 -3.42677,-0.54796 -4.06353,-1.02151 -4.06353,-3.02198 0,-1.74343 0.5568,-2.37219 2.10069,-2.37219 1.89316,0 2.04501,-0.41988 1.53702,-4.25 -2.01059,-15.15946 -4.34931,-27.44305 -5.70925,-29.98643 -0.51065,-0.95504 -0.92846,-2.73254 -0.92846,-3.95 0,-1.35684 -0.35136,-1.84589 -0.90781,-1.26357 -0.89274,0.93422 -1.33202,3.96869 -2.89867,20.02361 -0.52683,5.39898 -1.51759,9.31047 -2.99067,11.80716 -2.9642,5.02395 -2.80279,5.96272 1.36716,7.95122 2.40612,1.1474 3.46226,2.26735 3.2395,3.43522 -0.28435,1.49082 -2.00474,1.81045 -12.32001,2.28891 -6.59422,0.30587 -12.4395,0.74131 -12.9895,0.96764 -1.66211,0.68399 -7.50056,-1.82662 -7.4922,-3.22174 0.009,-1.48648 4.45395,-3.80202 7.29855,-3.80202 1.33427,0 1.72391,-0.47876 1.29637,-1.5929 -0.33619,-0.8761 -0.87469,-2.7886 -1.19667,-4.25 -0.32198,-1.46141 -2.07263,-5.8071 -3.89034,-9.6571 -4.359,-9.23261 -7.68726,-19.70287 -8.42374,-26.5 l -0.59593,-5.5 -2.65475,5.5 c -1.46012,3.025 -3.14828,8.2 -3.75149,11.5 -0.9833,5.37945 -3.39932,14.49177 -6.11699,23.071 -0.53505,1.68905 -0.97281,4.4792 -0.97281,6.20034 0,3.08267 0.0895,3.13947 6,3.80817 4.83602,0.54713 6,1.02471 6,2.46176 0,2.09993 -2.48331,2.58443 -18.11496,3.53424 -12.30748,0.74782 -15.13843,0.19479 -14.69334,-2.87041 0.33969,-2.33931 3.12441,-3.44769 9.0583,-3.60542 2.0625,-0.0548 3.74706,-0.43718 3.74347,-0.84968 -0.004,-0.4125 -4.60384,-5.475 -10.22277,-11.25 -8.78382,-9.0278 -10.95214,-11.95908 -15.46482,-20.90644 -5.37899,-10.66498 -5.76017,-10.84136 -6.68573,-3.09356 -0.29567,2.475 -1.28497,7.425 -2.19846,11 -0.91348,3.575 -1.87231,11.35399 -2.13073,17.28664 l -0.46986,10.78663 7.33945,-0.28663 c 6.80977,-0.26595 7.36116,-0.13454 7.64034,1.82096 0.3634,2.54548 -1.42783,3.30808 -14.96329,6.37044 -7.64652,1.73001 -10.11052,1.94626 -11.81033,1.03655 -2.60115,-1.39209 -2.29221,-4.07416 0.63753,-5.5348 2.06492,-1.02947 1.92214,-1.32209 -3.73077,-7.64615 -3.23283,-3.61664 -7.803,-10.34625 -10.15595,-14.95468 -4.18154,-8.18987 -4.28564,-8.29997 -4.61309,-4.87896 -0.18426,1.925 -0.0922,7.775 0.20466,13 0.29682,5.225 0.53752,11.44766 0.53489,13.82813 -0.004,3.90566 0.21974,4.30971 2.29534,4.13931 4.05158,-0.33261 4.80012,-0.0101 4.80012,2.0681 0,1.47842 -1.30005,2.58794 -4.75,4.05386 -2.6125,1.11008 -6.88924,3.07593 -9.50387,4.36855 -3.983421,1.96933 -5.160548,2.16318 -7.263135,1.19614 -3.36738,-1.54877 -2.76752,-3.55346 1.767005,-5.90526 3.574801,-1.85404 4.94206,-3.74883 2.705119,-3.74883 -1.983626,0 -19.974104,-18.31846 -22.983024,-23.40202 -1.96509,-3.32001 -2.8435,-4.22608 -2.51869,-2.59798 0.27432,1.375 0.75943,5.425 1.07803,9 0.3186,3.575 1.01828,10.55 1.55484,15.5 0.53657,4.95 0.98962,9.7875 1.0068,10.75 0.0329,1.8454 1.41227,2.35939 2.33313,0.8694 0.86254,-1.39562 5.36538,-1.92782 6.52231,-0.77089 1.66195,1.66195 1.29659,2.30425 -2.69851,4.74406 -13.14106,8.02523 -16.294,9.05818 -19.8073,6.48919 z M 234.5,169.46085 c -8.47185,-0.67022 -10.5,-1.31259 -10.5,-3.32566 0,-3.42637 3.98566,-4.94858 14.07355,-5.37497 12.28826,-0.5194 22.76635,-3.29981 26.49788,-7.03134 3.7772,-3.7772 4.74176,-17.20625 1.83671,-25.57143 -1.72095,-4.9555 -6.17981,-14.18701 -7.24024,-14.98997 C 257.61254,111.98975 251,101.06481 251,99.672828 c 0,-2.008008 2.96888,-1.925898 5.95357,0.16465 2.2644,1.586052 2.36076,1.581482 1.7225,-0.0818 C 258.30423,98.786698 258,97.42556 258,96.73096 c 0,-1.902836 -14.08058,-15.324642 -20.01468,-19.078272 -1.93307,-1.222771 -4.14416,-2.9817 -4.91353,-3.90873 -0.76936,-0.927029 -3.46276,-2.584096 -5.98532,-3.682371 -2.52256,-1.098275 -6.3165,-2.875999 -8.43097,-3.950498 -2.11448,-1.074499 -4.81448,-1.960526 -6,-1.968948 -4.09777,-0.02911 -4.51279,-1.124792 -4.9256,-13.003882 C 207.09448,32.853065 203.45045,23.250729 193.50616,13.657454 187.60887,7.9683267 186.85175,7.5617857 178.89331,5.8110117 167.73138,3.355502 168,3.4607164 168,1.544234 168,0.08246197 168.84771,-0.05259563 174.63226,0.48757407 181.19217,1.1001479 187,2.9381397 187,4.4015654 c 0,0.4157387 0.70502,0.7558886 1.56672,0.7558886 0.8617,0 2.9992,1.0654697 4.75,2.3677107 1.7508,1.3022402 4.97974,2.6416313 7.17542,2.9764233 2.19568,0.334792 4.14568,1.069322 4.33333,1.63229 0.18766,0.562967 1.2037,1.023576 2.25786,1.023576 1.05417,0 1.91667,0.34015 1.91667,0.755889 0,0.415738 1.40569,1.378106 3.12375,2.138595 1.71806,0.760489 4.30556,2.569082 5.75,4.019096 1.44444,1.450015 4.20125,3.807109 6.12625,5.237987 1.925,1.430878 5.11975,4.138019 7.09944,6.015867 3.92718,3.725144 3.92713,5.409421 -2.6e-4,9.540753 -2.64672,2.784163 -2.63415,3.692661 0.076,5.492135 3.08173,2.046195 1.7905,4.799678 -2.25078,4.799678 -2.60857,0 -3.0115,0.29543 -2.38684,1.75 0.94543,2.201474 0.95495,4.278665 0.0294,6.423308 -0.78531,1.819752 0.89911,3.063632 5.70497,4.212923 2.14112,0.512036 2.90321,0.259046 3.34868,-1.111668 0.97297,-2.993809 6.31031,-13.684363 7.63204,-15.286759 1.8494,-2.242131 6.70969,-4.134524 8.86329,-3.450997 2.25457,0.715572 4.01607,3.654864 3.06425,5.113103 -0.37412,0.57318 -1.91772,1.345007 -3.43022,1.71517 -3.08257,0.754424 -3.74224,2.63492 -0.92428,2.63492 3.89132,0 8.81805,8.586944 7.63384,13.305241 -1.03048,4.105757 -2.99791,5.227242 -5.86945,3.345737 -1.71985,-1.126889 -2.26119,-2.192666 -1.87119,-3.683997 0.3018,-1.154118 -0.0482,-3.213762 -0.77776,-4.576989 -1.95863,-3.659724 -4.8508,-2.724538 -6.52545,2.110008 -1.92649,5.561592 -1.7633,7.24657 0.83432,8.61452 1.2375,0.651689 2.475,1.457821 2.75,1.791406 0.275,0.333585 3.28727,2.988888 6.69394,5.900673 l 6.19394,5.294156 1.63936,-2.501991 c 4.01125,-6.121933 6.4603,-20.938215 4.50136,-27.232297 -1.86344,-5.987205 -4.61241,-11.620715 -7.01039,-14.366467 -2.0393,-2.335066 -2.80453,-2.5 -11.59899,-2.5 -9.56617,0 -10.69341,-0.50987 -8.16922,-3.695091 1.70173,-2.147382 16.16214,-3.091911 20.35375,-1.329472 1.64747,0.69271 4.27962,2.781617 5.84922,4.642017 4.45023,5.274718 9.90866,17.70049 10.09696,22.985095 0.33675,9.450697 -3.65676,23.494091 -8.22476,28.922851 -1.95688,2.325625 -2.17863,3.22982 -1.33579,5.446674 C 266.54522,97.0915 267,101.18335 267,104.72255 c 0,3.53919 0.34015,6.4349 0.75589,6.4349 0.80472,0 1.49688,1.45847 5.93223,12.5 2.42838,6.0453 2.81188,8.36385 2.81188,17 0,11.02573 -1.23713,14.96838 -6.18052,19.69695 -3.09791,2.96328 -9.11082,5.80305 -12.28736,5.80305 -1.11767,0 -2.03212,0.40273 -2.03212,0.89496 0,1.36736 -14.34598,2.9744 -21.5,2.40844 z M 35.25,133.45028 c -3.38908,-7.29752 0.17716,-18.69395 9.42985,-30.1345 4.86412,-6.01426 5.86581,-9.024477 1.41894,-4.264082 -1.59567,1.708162 -3.63479,3.105752 -4.53139,3.105752 -2.07715,0 -3.18553,-2.781872 -1.70019,-4.26721 2.19995,-2.199947 1.25881,-3.750241 -2.11661,-3.486592 -2.67599,0.209019 -3.30442,-0.132081 -3.56126,-1.932996 -0.49326,-3.45858 3.77886,-5.666799 9.83705,-5.084684 2.74663,0.263916 5.81224,1.220466 6.81248,2.125667 1.00023,0.9052 2.8098,1.645819 4.02125,1.645819 1.21146,0 2.46167,0.675 2.77825,1.5 0.782135,2.038209 -0.39339,4.239336 -7.77563,14.559586 -6.3053,8.81471 -9.85626,16.4867 -9.89455,21.37756 -0.0269,3.43876 -1.71529,7.58233 -3.07844,7.55505 -0.21436,-0.004 -0.95225,-1.21901 -1.63975,-2.69937 z m -5.90014,-10.97945 c -0.34981,-0.99736 -2.25913,-3.52149 -4.24294,-5.60918 L 21.5,113.06584 21.15878,102.60515 C 20.84154,92.879227 20.99522,91.846382 23.34667,87.900953 28.67572,78.959509 36.78964,73.157454 43.96481,73.157454 l 5.03519,0 0,-3.573324 c 0,-2.848621 0.35072,-3.505781 1.72933,-3.240285 0.95113,0.183172 2.12049,1.678668 2.59858,3.323324 1.47223,5.064623 3.24314,7.996786 4.74058,7.849122 2.454795,-0.242069 11.039615,-2.461404 20.931515,-5.41118 5.225,-1.558102 10.38869,-2.975217 11.47488,-3.149143 1.08618,-0.173927 2.47614,-1.321645 3.08878,-2.550486 0.612642,-1.228841 1.912643,-3.116861 2.888889,-4.195601 1.70747,-1.886733 1.685072,-2.071609 -0.58878,-4.859829 -2.119689,-2.599184 -3.144949,-2.960595 -9.928829,-3.499978 -4.16079,-0.330821 -8.80258,-1.071997 -10.3151,-1.647057 -1.51253,-0.575059 -5.03047,-1.045563 -7.81765,-1.045563 -5.39844,0 -7.36348,1.366797 -10.423305,7.25 -1.53432,2.950089 -5.06379,3.734715 -5.98627,1.330788 -0.29953,-0.780566 0.20437,-2.562278 1.11977,-3.959359 1.10093,-1.680228 1.45013,-3.515559 1.03153,-5.421447 -0.40337,-1.836543 -0.16347,-3.255812 0.66162,-3.914158 2.77111,-2.211095 17.006745,-2.082613 29.794465,0.268908 1.375,0.252847 5.64477,0.79397 9.48839,1.202495 5.887779,0.625792 7.045325,1.057758 7.349835,2.742773 0.19879,1.1 1.15913,2.9 2.1341,4 1.81366,2.046253 2.78664,5.125112 3.71324,11.75 0.5487,3.923004 1.1831,4.481329 3.01287,2.651562 0.70845,-0.708453 3.17595,-0.863608 6.95,-0.437011 3.21836,0.363785 9.32311,0.745582 13.56612,0.848438 l 7.71456,0.187011 -4.34951,-4.5 c -5.41264,-5.599907 -7.92964,-10.876012 -7.39071,-15.492329 0.38093,-3.262965 0.21667,-3.507671 -2.35452,-3.507671 -2.90947,0 -4.83438,-2.316834 -4.83438,-5.818707 0,-1.666265 0.69155,-1.943562 4.75,-1.904667 3.63546,0.03484 6.73888,-0.944235 13.22628,-4.172658 4.66195,-2.32 8.71195,-4.529983 9,-4.911074 0.68815,-0.910441 3.69394,-2.729953 8.02372,-4.857056 1.925,-0.945699 5.11827,-2.720082 7.09616,-3.943073 1.97788,-1.222991 5.12788,-2.374178 7,-2.558193 2.78414,-0.273661 3.40384,0.0079 3.40384,1.546725 0,1.106001 -1.36668,2.614253 -3.31631,3.659854 -1.82397,0.978207 -5.19897,3.644873 -7.5,5.925924 -3.92473,3.890658 -8.87168,6.687852 -21.43369,12.119435 l -5.25,2.270004 0,6.321743 c 0,3.476959 0.26949,6.321743 0.59887,6.321743 0.32938,0 2.01688,-0.644463 3.75,-1.432139 4.23677,-1.925545 25.02336,-9.148061 30.71681,-10.672871 3.72296,-0.997077 4.96141,-1.945242 6.7097,-5.13698 2.48459,-4.53596 1.67954,-6.912721 -2.99766,-8.850082 -3.30121,-1.367405 -3.65968,-4.365552 -0.71066,-5.943816 1.62373,-0.868994 2.62899,-0.738063 4.68713,0.61048 3.15196,2.065246 7.42714,6.960993 8.59027,9.837213 1.59085,3.933879 2.63635,15.718425 1.74605,19.680864 l -0.87792,3.907331 3.19434,0 c 4.25302,0 8.5756,2.099821 8.58527,4.170545 0.009,1.89821 -2.14752,2.471143 -12.4922,3.319067 -9.66533,0.79224 -18.62018,2.573048 -20.97251,4.170702 -1.08487,0.736827 -3.44737,1.339686 -5.25,1.339686 -8.12518,0 -0.30017,-6.7318 11.72251,-10.084788 4.73583,-1.320768 9.30469,-4.613201 8.41016,-6.060572 -0.29051,-0.470052 -0.10271,-0.85464 0.41732,-0.85464 0.52004,0 1.14366,-1.35 1.38583,-3 0.50172,-3.418425 0.22755,-3.508836 -4.94307,-1.630067 -2.07363,0.753462 -6.47024,2.138554 -9.77024,3.07798 -5.11106,1.454989 -10.28468,3.299002 -24.31969,8.668166 -2.06074,0.788348 -2.15243,1.054656 -0.82142,2.385664 0.82404,0.824042 2.33027,1.498257 3.34718,1.498257 2.43485,0 6.29393,2.750111 6.29393,4.485275 0,0.754528 -0.72569,2.097554 -1.61264,2.984504 -1.45905,1.459054 -1.83665,1.465856 -3.96481,0.07143 -3.33648,-2.186147 -4.79186,-1.910521 -2.42255,0.458791 1.40741,1.407407 2,3.333333 2,6.5 l 0,4.5 -3.94098,0 c -4.38317,0 -5.86425,-1.324825 -3.99673,-3.575061 2.16262,-2.60579 -1.63612,-4.44054 -7.76151,-3.748724 -3.55568,0.401586 -6.81623,0.05832 -10.31449,-1.085909 -6.91003,-2.260154 -10.85734,-0.91083 -13.16874,4.501517 -1.35758,3.178901 -2.66918,4.310029 -7.44865,6.423737 -7.412045,3.277956 -9.758835,5.309671 -8.242925,7.136232 0.6154,0.741514 2.18881,1.348208 3.49647,1.348208 3.658295,0 2.93446,3.198364 -1.18815,5.249996 -1.93407,0.9625 -3.948,1.75 -4.4754,1.75 -1.85601,0 -4.95889,-4.02784 -4.95889,-6.437125 0,-2.238268 -0.29282,-2.389612 -3.58859,-1.854783 -3.33129,0.540594 -3.5643,0.413015 -3.25,-1.779453 0.20693,-1.443445 1.5051,-2.923648 3.33859,-3.806749 1.65,-0.794722 3.675,-1.818246 4.5,-2.274497 7.21877,-3.992211 11.165897,-5.847389 12.441071,-5.847389 1.463888,0 4.558924,-4.764308 4.558924,-7.017728 0,-0.614376 -0.7875,-0.900626 -1.75,-0.636111 -8.028545,2.206412 -17.435245,5.22608 -20.749995,6.66101 -2.2,0.952361 -6.025,2.318597 -8.5,3.036078 -4.85175,1.406478 -7.19848,2.945548 -5.47439,3.590288 1.55474,0.58141 0.52491,8.338441 -1.13065,8.516463 -0.76723,0.0825 -1.95746,0.195 -2.64496,0.25 -0.6875,0.055 -1.26222,-0.923896 -1.27715,-2.175325 -0.0271,-2.267069 -4.795045,-8.224675 -6.582375,-8.224675 -0.51699,0 -1.36771,-1.125 -1.89048,-2.5 -1.108,-2.914241 -3.96535,-3.24808 -9.17385,-1.071829 -4.18808,1.749893 -12.50564,10.446612 -13.40028,14.011143 -1.14563,4.56453 0.009,15.278762 1.86791,17.332822 1.08915,1.20349 1.70622,3.55339 1.70622,6.49758 0,4.80938 -1.55136,7.17648 -2.65014,4.04366 z m 82.772,-21.59152 C 111.50483,100.26228 111,99.242188 111,98.612438 111,95.92531 107.29811,94.157454 101.67126,94.157454 96.356198,94.157454 96,94.007155 96,91.764443 c 0,-2.955521 1.596325,-3.606989 8.83839,-3.606989 7.3707,0 11.21,-1.16076 15.86772,-4.797383 4.39844,-3.434182 9.30803,-4.643983 11.71214,-2.886055 1.53311,1.121037 1.50024,1.393804 -0.41573,3.450353 -1.14423,1.228197 -2.65371,2.233085 -3.35438,2.233085 -0.70068,0 -2.59565,1.405422 -4.21105,3.123161 -1.6154,1.717739 -4.43112,3.761954 -6.25717,4.5427 -2.9307,1.253058 -3.24716,1.751497 -2.69839,4.250045 0.68318,3.11051 -1.35383,4.81179 -3.35967,2.80595 z M 45.68026,64.356648 c -0.92287,-1.019767 -2.19302,-4.418822 -2.82254,-7.553456 -1.04146,-5.185803 -0.9483,-6.079863 1.03395,-9.922537 3.49022,-6.765945 7.52066,-10.753577 11.52597,-11.40355 2.19396,-0.35603 4.145675,-0.09703 5.073895,0.673325 2.11886,1.758497 1.90193,2.469083 -1.24153,4.066784 C 52.78699,43.502111 50,47.94916 50,54.976903 c 0,2.723012 -0.5944,6.364592 -1.32089,8.092399 -1.2723,3.025898 -1.38262,3.073257 -2.99885,1.287346 z M 99.754979,36.579099 c -0.318095,-0.318095 -8.374434,-0.655595 -17.902984,-0.75 -15.04206,-0.14903 -17.36547,-0.383703 -17.63458,-1.781159 -0.19898,-1.033254 0.87022,-2.087621 2.98632,-2.94488 1.81294,-0.734451 3.99793,-2.117552 4.85552,-3.073558 0.85758,-0.956007 2.77008,-2.042094 4.25,-2.413529 1.47991,-0.371434 2.69075,-1.076551 2.69075,-1.566927 0,-0.490376 0.87344,-0.891592 1.94098,-0.891592 1.06754,0 2.2191,-0.45 2.55902,-1 0.33991,-0.55 1.39146,-1 2.33677,-1 2.11491,0 5.16323,-3.404964 5.16323,-5.76732 0,-1.951139 4.002368,-4.034251 9.449565,-4.918209 1.97945,-0.321221 3.83963,-0.9733851 4.13373,-1.4492541 0.2941,-0.475869 2.28162,-0.8652172 4.4167,-0.8652172 2.13508,0 4.16008,-0.45 4.5,-1 0.33992,-0.55 4.33971,-1 8.88842,-1 7.93355,0 8.26715,-0.09164 8.19098,-2.2499997 -0.11086,-3.14157083 3.54924,-3.46166803 8.20076,-0.7172041 3.03376,1.7899614 5.18485,2.1701907 11.95947,2.1139707 7.88146,-0.065405 8.25967,0.032867 8.24506,2.1423421 -0.023,3.3247913 -1.0293,4.2337263 -6.2881,5.6798363 -5.39237,1.482843 -13.7926,6.317259 -25.20821,14.507589 -9.95572,7.142898 -15.44224,9.523466 -21.94883,9.523466 -2.86342,0 -5.46648,-0.26026 -5.784571,-0.578355 z"
     id="path3051"
     inkscape:connector-curvature="0" />
</svg>
