<?xml version="1.0" encoding="UTF-8" standalone="no"?>
<!-- Created with Inkscape (http://www.inkscape.org/) -->

<svg
   xmlns:dc="http://purl.org/dc/elements/1.1/"
   xmlns:cc="http://creativecommons.org/ns#"
   xmlns:rdf="http://www.w3.org/1999/02/22-rdf-syntax-ns#"
   xmlns:svg="http://www.w3.org/2000/svg"
   xmlns="http://www.w3.org/2000/svg"
   xmlns:sodipodi="http://sodipodi.sourceforge.net/DTD/sodipodi-0.dtd"
   xmlns:inkscape="http://www.inkscape.org/namespaces/inkscape"
   id="svg3025"
   version="1.1"
   inkscape:version="0.48.4 r9939"
   width="900"
   height="900"
   sodipodi:docname="500.png">
  <metadata
     id="metadata3031">
    <rdf:RDF>
      <cc:Work
         rdf:about="">
        <dc:format>image/svg+xml</dc:format>
        <dc:type
           rdf:resource="http://purl.org/dc/dcmitype/StillImage" />
        <dc:title></dc:title>
      </cc:Work>
    </rdf:RDF>
  </metadata>
  <defs
     id="defs3029" />
  <sodipodi:namedview
     pagecolor="#ffffff"
     bordercolor="#666666"
     borderopacity="1"
     objecttolerance="10"
     gridtolerance="10"
     guidetolerance="10"
     inkscape:pageopacity="0"
     inkscape:pageshadow="2"
     inkscape:window-width="1366"
     inkscape:window-height="744"
     id="namedview3027"
     showgrid="false"
     inkscape:zoom="0.66333333"
     inkscape:cx="450"
     inkscape:cy="450"
     inkscape:window-x="0"
     inkscape:window-y="24"
     inkscape:window-maximized="1"
     inkscape:current-layer="svg3025" />
  <path
     style="fill:#000000"
     d="m 444.37186,830.13377 c -8.4212,-1.04407 -23.44527,-7.36865 -30.88814,-13.00276 -6.11901,-4.63198 -9.07221,-8.56869 -9.15685,-12.20638 -0.0464,-1.99302 -1.82213,-3.70717 -8.75659,-8.4528 -11.78769,-8.06695 -30.99584,-27.31056 -34.54402,-34.60779 -4.48702,-9.22807 -4.53428,-20.30466 -0.1305,-30.59003 2.60904,-6.09363 10.95041,-10.33183 20.35807,-10.3438 2.56972,-0.003 5.67148,-0.80165 7.5,-1.93047 8.46351,-5.22486 24.9131,-8.59311 29.63218,-6.06754 1.5868,0.84923 2.44238,0.27455 5.44416,-3.65676 1.95882,-2.56539 3.39035,-4.83548 3.18118,-5.04465 -0.20916,-0.20917 -12.25112,0.62853 -26.7599,1.86155 -27.38248,2.32709 -71.80284,2.8805 -87.37959,1.08861 -6.2513,-0.71912 -4.53998,-0.94026 16,-2.06757 12.65,-0.69428 26.375,-1.82488 30.5,-2.51245 7.34456,-1.22422 7.4171,-1.26468 3.5,-1.95221 -2.2,-0.38614 -10.075,-0.71595 -17.5,-0.73289 -23.74042,-0.0542 -47.02415,-4.76807 -41.23229,-8.34764 0.42224,-0.26096 10.65974,0.52597 22.75,1.74874 17.55084,1.77502 22.38547,1.97835 23.98229,1.00862 2.63119,-1.5979 62.40924,4.1144 64.03596,6.11918 0.56977,0.70219 3.8025,1.69544 7.18384,2.20722 l 6.14789,0.9305 4.42978,-7.07891 c 7.04953,-11.26535 9.98573,-16.62905 9.41533,-17.19944 -0.2916,-0.29161 -0.8266,0.40372 -1.18888,1.54517 -0.49891,1.57193 -1.55201,2.10406 -4.34131,2.19367 -2.02543,0.0651 -5.03261,0.41995 -6.68261,0.78862 -2.92452,0.65343 -2.8742,0.70591 2,2.08589 l 5,1.41561 -7.5,0.66999 c -4.125,0.3685 -26.625,1.24723 -50,1.95275 -36.16379,1.09151 -43.84179,1.07299 -51.5,-0.12421 -8.36472,-1.30765 -8.64707,-1.42511 -4,-1.66403 11.46065,-0.58924 28.12509,-2.15683 29.80435,-2.80363 1.55282,-0.59811 1.34373,-0.97761 -1.5,-2.72248 -3.1857,-1.95469 -3.89683,-1.98558 -19.80435,-0.86036 -9.075,0.64192 -20.1,1.09996 -24.5,1.01787 l -8,-0.14925 10,-0.89262 c 5.5,-0.49094 16.93858,-1.21658 25.41907,-1.61254 10.91447,-0.5096 15.5401,-1.0851 15.83334,-1.96992 0.32047,-0.96701 -3.73625,-1.2748 -17.91908,-1.35957 -21.31887,-0.1274 -18.90238,-1.01596 7.91667,-2.91098 10.0375,-0.70925 18.25,-1.60832 18.25,-1.99793 0,-1.2924 11.86242,-6.05674 18.73394,-7.52416 3.72133,-0.7947 12.11463,-1.74514 18.65178,-2.11211 10.37572,-0.58243 11.94681,-0.90083 12.36663,-2.50622 0.2645,-1.01147 1.44093,-1.88833 2.61428,-1.9486 1.17335,-0.0603 0.15784,-0.49755 -2.25669,-0.97176 -3.95364,-0.77649 -8.10994,-3.25382 -8.10994,-4.83388 0,-0.33287 1.16447,-1.86105 2.5877,-3.39595 l 2.58771,-2.79072 20.96715,0.16275 c 11.53193,0.0895 21.24246,-0.11256 21.57896,-0.44906 0.99518,-0.99518 4.27848,-0.69728 4.27848,0.38819 0,0.55 0.41075,1 0.91277,1 0.50202,0 2.05964,-4.8375 3.46138,-10.75 4.31131,-18.18498 5.88438,-43.61318 3.78911,-61.25 -1.2798,-10.77271 -1.47362,-31.51152 -0.50388,-53.91596 0.61813,-14.28112 0.77757,-15.20304 2.54916,-14.73976 1.68506,0.44066 1.83421,0.0425 1.37683,-3.67504 -0.28213,-2.29308 -0.78524,-8.89424 -1.11802,-14.66924 -0.83723,-14.52917 -4.19513,-40.11823 -7.06802,-53.86225 -0.47798,-2.28667 -0.55704,-2.305 -2.47115,-0.57275 -1.08755,0.98422 -3.41599,4.71174 -5.1743,8.28338 -2.79235,5.67207 -3.24693,7.73867 -3.592,16.32981 -0.22695,5.65045 0.0275,10.36483 0.59794,11.07886 0.54616,0.68362 0.67204,2.12508 0.27975,3.20323 -0.46156,1.26851 0.50613,4.97391 2.74215,10.5 6.4974,16.05763 9.43024,39.43669 5.62818,44.86489 -1.17879,1.68297 -1.92098,1.99556 -2.86931,1.20852 -0.99935,-0.82939 -1.42474,0.0353 -1.94435,3.95232 -0.4557,3.43528 -1.12657,5.01399 -2.13068,5.01399 -0.80606,0 -1.46556,-0.9 -1.46556,-2 0,-1.1 -0.37639,-2 -0.83642,-2 -0.78183,0 -1.66941,3.61693 -5.72033,23.31053 -2.91049,14.14939 -10.94006,30.40644 -18.14083,36.7288 -7.34711,6.45085 -14.6323,7.5691 -23.52391,3.61085 -10.19315,-4.53767 -39.4626,-38.16154 -43.31444,-49.75835 -1.16782,-3.51599 -1.55985,-7.32407 -1.29464,-12.57597 0.33284,-6.59106 0.68986,-7.77381 2.85548,-9.45965 1.3613,-1.0597 4.35564,-3.71572 6.6541,-5.90227 2.29845,-2.18655 5.57658,-4.25506 7.28472,-4.59669 1.70814,-0.34162 2.87533,-0.85152 2.59375,-1.1331 -0.28158,-0.28158 0.82876,-2.03896 2.46741,-3.90528 3.46236,-3.94341 5.46553,-8.34322 6.4491,-14.16495 0.55974,-3.31301 0.0501,-5.99551 -2.54566,-13.39815 -4.4353,-12.64891 -5.18745,-27.32208 -2.04108,-39.81804 5.63484,-22.37898 22.42579,-44.97449 51.11275,-68.78221 11.54716,-9.58316 31,-28.46955 31,-30.09732 0,-0.47903 -0.84509,-0.64996 -1.87798,-0.37986 -2.75526,0.72052 -20.88912,-4.35181 -25.75719,-7.20469 -8.75902,-5.13313 -16.61527,-13.79998 -15.69595,-17.31545 0.36216,-1.38491 -1.11356,-2.73474 -6.26961,-5.73472 -3.7088,-2.15791 -8.91526,-6.03118 -11.56993,-8.60726 l -4.82667,-4.68377 -21.75133,-0.17826 c -17.76483,-0.14559 -22.40787,0.10679 -25.3335,1.37707 -6.03163,2.61885 -12.89146,3.04733 -19.92774,1.24471 -5.26702,-1.34934 -7.27232,-1.43246 -11.53661,-0.47815 -2.8388,0.6353 -6.91466,0.85356 -9.05747,0.48503 -2.14281,-0.36854 -10.64602,-1.05951 -18.89602,-1.5355 -14.52534,-0.83805 -20.85494,-2.11105 -27.44751,-5.5202 -3.79364,-1.96177 -6.81177,-1.22926 -7.23913,1.75697 -0.24908,1.74042 -2.77486,3.2894 -12.31336,7.55137 -18.23298,8.14682 -35.30179,14.28902 -41.46267,14.92032 -3.62052,0.371 -7.71507,1.76262 -11.82844,4.02017 -7.59023,4.16575 -9.29079,7.07443 -15.77492,26.98175 -7.57442,23.25467 -10.61177,38.20549 -12.94967,63.74227 -0.35246,3.85 -1.55053,12.625 -2.66237,19.5 -2.39144,14.78739 -2.24475,17.80784 2.54963,52.5 1.90022,13.75 3.75116,30.175 4.11321,36.5 1.06552,18.61453 -2.03748,50.55869 -5.54845,57.11898 -0.82255,1.53696 -0.59603,2.95252 1.00013,6.24975 1.13495,2.34449 2.06355,4.94286 2.06355,5.77414 0,1.06743 1.86987,1.85596 6.3653,2.68428 8.88214,1.6366 14.6347,1.53849 14.6347,-0.2496 0,-0.78234 1.50953,-1.92063 3.35451,-2.52953 4.68821,-1.54725 11.30798,-7.48156 15.29046,-13.70718 2.93126,-4.58231 4.04294,-5.46765 8.54387,-6.80428 6.40346,-1.90162 9.79826,-1.91546 16.73932,-0.0682 15.41272,4.10184 26.07184,19.43793 26.07184,37.51153 0,4.64066 0.62846,8.18671 1.97804,11.16091 2.74532,6.05015 2.55423,13.31855 -0.60118,22.8658 -1.83738,5.55934 -3.20602,8.12179 -4.56901,8.55439 -1.78729,0.56726 -1.81008,0.71689 -0.27961,1.836 1.52103,1.1122 1.43785,1.48986 -0.95433,4.3328 -5.19317,6.17173 -17.22848,9.25304 -24.83931,6.3594 -1.96145,-0.74574 -3.12715,-0.33797 -6.43216,2.25 -2.22011,1.73845 -6.33745,4.51081 -9.14965,6.16081 -2.81221,1.65 -5.12284,3.675 -5.13473,4.5 -0.046,3.19188 -14.01722,10 -20.52134,10 -1.81386,0 -3.85873,0.73481 -4.62428,1.66169 -2.23608,2.70735 -11.58526,6.33831 -16.32019,6.33831 -2.41489,0 -7.22984,0.72735 -10.69987,1.61633 -8.39186,2.14989 -15.466,1.34073 -23.69476,-2.71027 -11.89203,-5.85443 -18.76713,-15.09207 -21.69158,-29.14562 -2.21916,-10.66424 -3.21783,-13.1754 -5.67626,-14.27296 -3.20962,-1.43292 -5.20656,-5.5065 -9.2349,-18.8384 -7.89844,-26.14009 -11.26909,-56.70058 -9.50177,-86.14908 1.08917,-18.14848 1.72094,-23.68537 6.44435,-56.47831 2.1522,-14.94197 3.02153,-23.70094 2.39099,-24.09063 -0.65265,-0.40336 -0.63204,-3.47322 0.0604,-8.99546 0.57814,-4.61072 1.06685,-18.96994 1.08603,-31.90937 0.0637,-42.95184 1.54982,-70.94545 4.48743,-84.52623 2.62641,-12.14207 3.38642,-16.70166 5.88622,-35.31354 0.76188,-5.67245 1.66414,-10.59245 2.00502,-10.93334 1.35853,-1.35852 2.50951,1.6054 3.39668,8.74688 l 0.9317,7.5 0.12904,-7.66203 c 0.1494,-8.87117 2.11033,-19.79781 5.07439,-28.27547 3.94627,-11.2869 19.87605,-38.32618 23.82408,-40.4391 1.04983,-0.56185 3.81207,-3.48857 6.13832,-6.50383 4.82629,-6.25576 12.24824,-12.28772 19.73748,-16.041 8.7659,-4.3931 12.93116,-2.9272 5.10477,1.79654 -2.3375,1.41083 -5.375,3.48134 -6.75,4.60112 l -2.5,2.03597 3.86703,-1.56842 c 2.12687,-0.86263 5.05187,-1.72684 6.5,-1.92047 2.74697,-0.36728 30.433,-10.62553 52.39909,-19.41493 18.726,-7.49294 30.61465,-13.25281 40.05331,-19.40524 l 8.37634,-5.45998 0.5743,-9.87158 c 0.9058,-15.56989 6.66235,-30.93905 14.68439,-39.20521 2.43959,-2.51384 4.36191,-6.00545 5.89038,-10.69902 2.73263,-8.39122 9.0232,-19.337082 13.06989,-22.742142 1.62103,-1.36401 5.11587,-3.51592 7.7663,-4.78202 2.65043,-1.2661 6.77091,-4.00022 9.15662,-6.07582 5.52808,-4.80951 11.23308,-7.55842 19.27782,-9.28886 3.51149,-0.75533 8.91678,-2.55219 12.01175,-3.99302 9.08092,-4.22752 20.06666,-6.412249 36.62316,-7.283227 8.38771,-0.441247 15.25021,-0.480601 15.25,-0.08745 -8.2e-4,1.534934 -4.11287,2.785561 -9.18464,2.793389 -8.46214,0.01306 -22.70658,1.874081 -30.43095,3.975768 -13.60856,3.70269 -27.87931,12.75957 -35.10334,22.2782 -1.5298,2.01572 -3.09554,3.68134 -3.47943,3.70139 -1.91556,0.10001 2.12775,-6.96598 6.66898,-11.65453 2.82819,-2.91997 4.98629,-5.30903 4.79575,-5.30903 -0.79547,0 -8.97905,4.41076 -11.56641,6.23403 -2.56581,1.80808 -2.65639,2.07762 -1.08444,3.22706 1.52123,1.11235 1.32093,1.32817 -1.7709,1.9082 -2.13325,0.4002 -4.27049,1.71669 -5.50731,3.39236 -3.6674,4.96866 -13.3377,21.021262 -13.3377,22.140442 0,1.58293 -1.96511,1.35241 -2.60117,-0.30514 -0.60031,-1.56439 2.14351,-7.37569 7.29767,-15.456172 1.88011,-2.94757 3.20175,-5.57587 2.93696,-5.84066 -0.87899,-0.87898 -9.77207,8.05112 -11.60662,11.65493 -0.99252,1.949722 -3.03201,7.105662 -4.53221,11.457642 -1.50019,4.35198 -4.20691,10.2252 -6.01493,13.05159 -6.25482,9.77786 -10.35792,21.46986 -13.51496,38.51163 -1.16927,6.31175 -2.35474,11.8461 -2.63437,12.29856 -0.27963,0.45245 -1.16467,0.27801 -1.96675,-0.38765 -1.19198,-0.98926 -2.22586,-0.48071 -5.66097,2.7845 -5.73807,5.45427 -12.95508,10.45934 -20.65048,14.32132 -8.84477,4.4388 -36.11212,15.04495 -50.05217,19.46873 -11.89976,3.77632 -20.1805,7.31461 -30.5,13.03243 -6.33834,3.51193 -8.21173,4.03875 -7.66762,2.1562 0.18282,-0.6325 -0.74619,-0.1375 -2.06445,1.1 -3.17121,2.97694 -4.13264,2.83924 -3.30136,-0.47285 l 0.6834,-2.72284 -2.14499,1.94119 c -1.17975,1.06765 -3.52989,4.07845 -5.22255,6.69066 -1.69265,2.61221 -3.37014,4.56865 -3.72774,4.34764 -1.23875,-0.76559 -2.81989,1.00361 -7.98125,8.9305 -9.72513,14.936 -16.07746,31.09613 -21.57861,54.8953 -1.50773,6.52277 -3.02337,11.40324 -3.36808,10.84549 -0.34471,-0.55776 -1.0314,-0.94458 -1.52597,-0.8596 -0.49457,0.085 -1.25044,-0.74549 -1.67971,-1.84549 -0.52517,-1.34572 -0.80349,-0.14111 -0.85078,3.68225 -0.0387,3.12523 -1.44064,13.66363 -3.11551,23.41865 -3.11582,18.14757 -4.88231,39.28755 -4.92868,58.98243 -0.0144,6.09584 -0.2663,11.32354 -0.55988,11.61712 -0.87841,0.87841 -0.68769,36.13436 0.20718,38.29955 1.95301,4.7254 0.69859,32.69873 -2.46639,55 -4.1664,29.35758 -5.19952,41.70654 -5.20359,62.19878 -0.004,19.14069 1.54848,33.25059 6.0275,54.78855 3.71151,17.84727 6.50995,27.0228 9.4435,30.96333 1.24855,1.67714 4.41489,7.89699 7.0363,13.82189 2.62142,5.92491 6.04399,12.78741 7.60572,15.25 2.63541,4.15562 3.14658,4.47843 7.11154,4.4911 2.34961,0.008 5.39702,0.31055 6.77202,0.67342 2.16763,0.57205 2.33152,0.45413 1.23275,-0.88691 -1.35864,-1.6582 -0.69214,-4.80016 1.01826,-4.80016 0.57037,0 2.45886,1.6448 4.19664,3.65512 2.86181,3.31063 3.81428,3.7337 10.10597,4.48884 4.62447,0.55504 7.36075,1.39801 8.18605,2.52188 0.68181,0.92849 1.47562,1.45221 1.764,1.16382 0.28839,-0.28838 -0.41216,-1.7149 -1.55676,-3.17002 -5.33282,-6.77958 1.19302,-12.22482 15.75374,-13.14511 6.15316,-0.38891 9.39891,-1.15321 13,-3.06123 7.31201,-3.87423 14.95005,-11.9517 19.3406,-20.4533 2.13031,-4.125 4.37963,-8.175 4.99851,-9 1.94778,-2.59653 0.23522,7.54066 -2.02107,11.96336 -1.11028,2.17633 -2.01645,4.31239 -2.01372,4.7468 0.0122,1.94731 5.44146,-5.89479 8.73823,-12.62171 3.06837,-6.26089 3.70024,-8.70612 4.06995,-15.75 0.24071,-4.58615 0.77497,-8.33845 1.18725,-8.33845 0.8215,0 1.94218,4.73781 2.09928,8.875 l 0.0997,2.625 0.80062,-2.5 c 0.44035,-1.375 0.8455,-5.1205 0.90032,-8.32332 0.0847,-4.94621 0.35948,-5.77329 1.82456,-5.49115 4.60281,0.88642 5.20716,12.89584 1.24826,24.8051 -1.00386,3.01985 -1.69142,5.62442 -1.52792,5.78793 0.68803,0.68802 13.55514,-14.16372 13.55897,-15.65029 0.002,-0.89555 1.07111,-3.73105 2.37513,-6.30111 1.30402,-2.57006 2.68452,-7.18256 3.06777,-10.25 0.38325,-3.06744 1.09019,-5.57716 1.57097,-5.57716 0.48078,0 0.17376,-2.3625 -0.68227,-5.25 -5.25161,-17.71444 -16.97885,-27.22458 -31.16543,-25.27343 -4.27231,0.58759 -5.1742,1.20257 -8.98328,6.1255 -2.32879,3.00979 -6.28968,6.9181 -8.80198,8.68513 l -4.5678,3.2128 3.84135,1.17315 c 2.27321,0.69424 3.02489,1.22361 1.84135,1.29677 -1.2207,0.0755 -0.21056,0.82374 2.59241,1.92039 5.44528,2.13044 14.75259,8.32802 13.25594,8.82691 -0.57592,0.19197 -4.3647,-1.24087 -8.41952,-3.18409 -4.05483,-1.94322 -8.0826,-3.53313 -8.95062,-3.53313 -0.86801,0 -2.0061,-0.42789 -2.52909,-0.95088 -0.59471,-0.59471 -2.44881,-0.60364 -4.95,-0.0239 -6.90049,1.59957 -15.35599,0.69383 -23.68813,-2.53743 -1.35206,-0.52434 -1.81772,0.10976 -2.3342,3.17858 -0.99709,5.92441 -2.53302,10.33363 -3.59966,10.33363 -0.56556,0 -0.69316,-1.46373 -0.30702,-3.52203 0.36341,-1.93711 0.33914,-6.95392 -0.0539,-11.14846 -0.96507,-10.29871 -2.48102,-7.58904 -2.50088,4.47015 -0.0105,6.35414 -0.49855,10.23413 -1.54099,12.25 -0.83912,1.62269 -1.80078,2.95034 -2.13701,2.95034 -0.77242,0 0.50552,-17.86464 1.74797,-24.43527 0.63443,-3.35512 0.5947,-5.14448 -0.12407,-5.5887 -0.72955,-0.45089 -0.76166,-3.03473 -0.10357,-8.33542 0.98592,-7.94134 0.38794,-18.70161 -2.38885,-42.98573 -0.80786,-7.06481 -1.46881,-13.42853 -1.46881,-14.14159 0,-0.71306 -1.06507,-1.56379 -2.36683,-1.89051 -2.85314,-0.71609 -3.60597,-4.1546 -3.62216,-16.54404 -0.009,-6.5988 -0.38888,-8.8388 -1.75707,-10.35063 -2.34119,-2.58699 -2.82294,-18.02734 -1.35281,-43.35845 1.85758,-32.00704 5.88988,-60.12538 12.66306,-88.30287 2.13606,-8.88632 3.11238,-14.79022 2.54043,-15.36217 -0.57195,-0.57195 0.14758,-3.09566 1.87225,-6.56679 1.54066,-3.10081 3.69968,-7.66283 4.79783,-10.13783 6.15976,-13.88288 9.46372,-20.48888 12.37567,-24.74414 4.01351,-5.86496 12.01852,-14.44481 17.34963,-18.59551 3.5345,-2.75188 3.33484,-2.38733 -1.71565,3.13256 -3.1436,3.43578 -7.13641,8.37543 -8.87291,10.97698 -2.67144,4.00227 -1.86889,3.4061 5.21565,-3.87434 8.07131,-8.29452 15.74209,-14.88977 18.87291,-16.22674 0.825,-0.3523 2.5125,-1.3768 3.75,-2.27665 5.32069,-3.86897 1.32727,0.84118 -8.56975,10.10784 -11.52332,10.78937 -20.00561,19.98809 -23.41911,25.39712 -3.99474,6.33005 6.1e-4,2.64948 7.05467,-6.49886 9.27138,-12.02395 19.18772,-20.34341 31.90095,-26.76374 5.42586,-2.74012 7.68548,-3.28457 7.11657,-1.71471 -0.18333,0.5059 -6.00177,5.21408 -12.92986,10.46261 -12.82459,9.71558 -16.05818,12.61758 -14.05929,12.61758 0.59898,0 3.44701,-2.09419 6.32894,-4.65376 12.91361,-11.46911 32.30606,-21.27845 39.11128,-19.78378 l 2.95775,0.64964 -4.26997,1.91172 c -5.13031,2.29691 -4.88634,3.10655 0.55589,1.84478 2.18456,-0.50649 5.32193,-0.93851 6.97193,-0.96006 4.42796,-0.0578 6.22756,-1.42696 4.5432,-3.45649 -0.73051,-0.88021 -1.0513,-1.87729 -0.71286,-2.21572 0.33844,-0.33844 -1.59067,-3.02907 -4.2869,-5.97918 -6.89841,-7.54796 -9.44572,-14.48234 -9.49848,-25.85715 -0.0499,-10.76543 1.7637,-17.02467 7.80272,-26.92875 5.22608,-8.57083 7.65534,-9.79809 3.72858,-1.88367 -4.18671,8.43838 -6.07626,16.84352 -6.07626,27.02863 0,11.27278 1.86453,16.93193 7.48343,22.71335 4.90115,5.04291 10.2219,8.02418 17.76724,9.95518 5.72002,1.46385 6.64826,2.68837 2.74933,3.62684 -2.18881,0.52685 -1.91586,0.75029 2.19282,1.79509 2.58105,0.65633 5.74342,1.19333 7.02749,1.19333 1.28407,0 3.40944,0.75279 4.72305,1.67288 1.3136,0.92008 2.06619,1.1516 1.67243,0.51447 -0.39376,-0.63712 -1.1151,-3.61101 -1.60298,-6.60866 -1.09648,-6.73703 0.24794,-12.57869 2.8949,-12.57869 1.4226,0 1.9372,-1.04273 2.3864,-4.8355 0.80016,-6.75611 4.15854,-15.88383 7.70587,-20.94374 1.65001,-2.35358 3.00002,-5.01608 3.00002,-5.91666 0,-0.90059 0.28523,-1.3522 0.63384,-1.00359 0.34861,0.34861 2.71111,-1.19826 5.25,-3.43749 2.53889,-2.23923 6.81545,-5.18835 9.50347,-6.5536 11.53833,-5.86033 23.68542,-3.1513 29.77183,6.63968 1.7269,2.778 3.49458,5.0509 3.92819,5.0509 0.4336,0 0.75999,0.7875 0.72529,1.75 -0.0347,0.9625 1.81463,7.26376 4.1096,14.0028 2.29497,6.73904 4.44095,14.51798 4.76884,17.28653 l 0.59618,5.03374 7.00216,-0.28654 c 4.49711,-0.18402 7.14286,0.11315 7.39544,0.83066 0.57558,1.63504 -5.31936,2.52347 -11.84504,1.78518 -5.07857,-0.57458 -5.75081,-0.92285 -6.31699,-3.27269 -2.14848,-8.9168 -2.67069,-10.12968 -4.36135,-10.12968 -0.9688,0 -2.29396,-0.5325 -2.94479,-1.18333 -0.65084,-0.65084 -1.38919,-0.97749 -1.64078,-0.72589 -0.2516,0.2516 0.31552,5.301 1.26026,11.22089 l 1.7177,10.76345 2.91017,-3.03756 c 3.35591,-3.50282 4.94835,-3.9122 4.03598,-1.03756 -0.58085,1.83011 -0.1797,2 4.72251,2 2.94651,0 8.0334,-0.69704 11.3042,-1.54897 6.60715,-1.72095 9.91914,-1.3375 10.91741,1.26396 0.8204,2.13792 -1.54862,4.02639 -6.1289,4.88565 -1.83552,0.34435 -3.54204,0.95735 -3.79227,1.36223 -0.45546,0.73695 15.00928,4.47445 23.47705,5.67391 2.475,0.35058 5.4,1.13823 6.5,1.75032 1.80058,1.00194 10.87209,1.36511 35.80221,1.43332 4.29122,0.0117 8.3833,0.50361 9.09351,1.09304 0.93029,0.77207 2.79416,0.62538 6.6668,-0.52467 4.00998,-1.19083 5.8195,-1.31905 7.12341,-0.50475 1.14026,0.71211 2.58873,0.77193 4.16645,0.17208 2.01555,-0.76631 2.60496,-1.99014 3.5375,-7.34519 4.14355,-23.79398 12.16615,-39.26059 24.6558,-47.53339 5.50739,-3.64795 10.82837,-4.69245 16.3417,-3.20787 5.41113,1.45707 5.59892,4.03033 0.29412,4.03033 -7.30104,0 -13.81386,2.7276 -19.07493,7.98867 -4.00552,4.00552 -5.66035,6.83022 -8.91361,15.21501 -2.19721,5.66297 -4.92408,14.12132 -6.05972,18.79632 -3.06858,12.63228 -7.1969,50.13265 -7.65107,69.5 -0.21925,9.35 -0.88487,20.375 -1.47913,24.5 -0.59427,4.125 -0.79467,9.21021 -0.44534,11.30046 0.34933,2.09026 0.32109,6.92776 -0.0628,10.75 -0.65013,6.47377 -0.86212,6.94954 -3.09642,6.94954 -1.62878,0 -2.38911,0.56161 -2.36923,1.75 0.12529,7.48929 3.3053,35.46715 5.4126,47.62035 3.38868,19.5431 4.53745,39.30874 3.40492,58.58474 -0.67901,11.55703 -1.29782,15.8858 -2.45343,17.16273 -1.32679,1.46609 -1.45226,4.23066 -0.88704,19.54491 0.36209,9.8105 1.28965,25.39111 2.06126,34.62359 3.05501,36.55389 -2.78063,66.21937 -20.19405,102.65646 -7.2071,15.08066 -12.18437,22.28028 -19.28086,27.88972 l -4.83371,3.82084 6.05723,1.2511 c 11.35043,2.34439 19.68233,7.74283 20.28286,13.14177 0.23897,2.14839 1.22214,4.02073 2.60124,4.95379 5.10466,3.45367 7.99706,6.50431 11.9238,12.57615 2.28491,3.53312 4.35354,6.42385 4.59694,6.42385 0.24341,0 -1.61925,-3.8758 -4.13924,-8.61289 -2.51999,-4.73708 -4.5818,-8.84218 -4.5818,-9.12244 0,-1.48336 3.54915,2.84382 7.67672,9.35959 2.5698,4.05666 4.99276,7.37574 5.38438,7.37574 0.77719,0 12.17737,-27.09486 11.63034,-27.64189 -0.18465,-0.18466 -1.3971,1.55272 -2.69434,3.86083 -3.17264,5.64496 -3.74625,3.20025 -0.67804,-2.8898 3.04158,-6.0372 8.13451,-20.41452 6.43631,-18.16968 -0.69045,0.9127 -2.51421,3.77886 -4.05278,6.36925 -4.77122,8.03295 -3.80917,4.47038 1.82969,-6.7755 2.95951,-5.90232 5.94105,-12.64887 6.62564,-14.99235 0.68459,-2.34347 1.53776,-4.48586 1.89594,-4.76086 0.35817,-0.275 1.45213,-2.975 2.431,-6 0.97888,-3.025 2.12558,-5.95 2.54824,-6.5 1.35259,-1.76013 5.80926,-17.67511 7.84083,-28 5.22149,-26.53677 5.49131,-31.00416 4.25316,-70.41743 -0.63205,-20.12041 -1.19486,-59.75757 -1.25068,-88.08257 -0.0854,-43.34665 0.15224,-52.8457 1.50108,-60 2.63921,-13.99849 3.60913,-15.84725 3.34542,-6.37668 -0.17165,6.16417 0.0757,8.00748 1.02546,7.64301 0.93256,-0.35786 1.27357,1.52275 1.33761,7.37668 0.10215,9.33744 1.2419,6.82702 2.31793,-5.1055 0.39492,-4.37937 1.5906,-10.55268 2.65708,-13.71846 2.46928,-7.32994 2.4132,-9.29923 -0.13723,-4.81905 -2.02429,3.55595 -2.00341,3.00659 0.19002,-5 0.67803,-2.475 1.30347,-9.9 1.38987,-16.5 0.2151,-16.43235 2.20363,-46.74489 3.53023,-53.81367 1.67589,-8.92995 5.72358,-20.52403 9.57848,-27.43633 1.91705,-3.4375 3.67254,-6.25 3.90107,-6.25 0.22854,0 -0.51651,2.1375 -1.65566,4.75 -3.88123,8.90113 -5.83865,15.4617 -5.03932,16.89001 0.7662,1.36914 3.8882,-4.43745 7.28602,-13.55127 0.69949,-1.8762 2.8284,-5.67417 4.73091,-8.43993 1.90251,-2.76577 4.56681,-7.75473 5.92066,-11.08658 3.1374,-7.72118 8.65863,-18.90489 11.04667,-22.37595 1.01647,-1.47745 2.45834,-4.26128 3.20416,-6.18628 1.58029,-4.07882 6.82438,-12.58289 11.71646,-19 5.02442,-6.59071 15.36003,-17.25 16.05364,-16.55639 0.32908,0.32907 -1.39861,2.68876 -3.83931,5.24375 l -4.43763,4.64543 5,-4.05357 c 2.75,-2.22946 8.7125,-6.19007 13.25,-8.80136 4.5375,-2.61129 8.25,-4.96315 8.25,-5.22637 0,-0.26322 -2.07305,-0.1677 -4.60678,0.21225 -2.99683,0.4494 -4.38986,0.33984 -3.98607,-0.3135 0.86604,-1.40129 6.1185,-3.01576 13.14009,-4.03893 l 5.95276,-0.86743 -8.45,-0.12194 c -6.73925,-0.0973 -8.19809,-0.37385 -7.20573,-1.36621 0.81273,-0.81273 5.30407,-1.34598 12.95,-1.53753 16.69091,-0.41814 18.87388,-1.33832 6.70573,-2.82664 l -10,-1.22313 13.5,0.28552 c 7.425,0.15704 14.625,0.60254 16,0.99001 2.42151,0.68236 2.43721,0.65613 0.5,-0.83563 -1.1,-0.84707 -2.49408,-1.95929 -3.09795,-2.47162 -0.60388,-0.51232 -1.95388,-1.15047 -3,-1.4181 -1.38566,-0.3545 -1.17313,-0.5181 0.78285,-0.60261 1.4767,-0.0638 3.91247,0.35072 5.41284,0.92116 4.63947,1.76392 5.51451,-0.61706 1.40587,-3.82536 -7.21399,-5.63317 -21.53523,-18.54791 -22.30061,-20.11045 -1.24037,-2.53222 -6.79932,-5.80985 -11.14777,-6.57287 -4.86752,-0.8541 -12.20259,-4.4922 -19.90685,-9.87353 -4.49889,-3.14243 -6.62417,-4.02073 -9.19357,-3.79936 -9.582,0.82553 -21.45481,-10.41224 -21.45481,-20.30728 0,-2.44836 -0.61336,-3.91441 -2,-4.78038 -2.65123,-1.65572 -2.53696,-2.8012 0.25,-2.50614 1.2375,0.13102 2.59717,1.09104 3.02148,2.13339 0.42432,1.04235 1.00565,1.66102 1.29185,1.37482 0.2862,-0.2862 -0.21613,-2.36104 -1.11629,-4.61076 -2.24683,-5.61538 -1.252,-7.57661 1.34889,-2.65924 1.70391,3.22148 2.12428,3.56208 2.15987,1.75 0.0624,-3.17454 2.29212,-2.79318 4.38513,0.75 0.97468,1.65 2.24891,3 2.83163,3 2.32459,0 10.99757,7.4488 15.82433,13.59073 5.7987,7.37871 10.06535,10.40011 14.69409,10.40553 3.71041,0.004 5.09319,1.46552 2.67015,2.82152 -1.53596,0.85956 -1.51156,1.03134 0.28285,1.99168 1.21862,0.65219 2.51252,0.70382 3.4099,0.13608 1.9038,-1.20448 7.6091,-1.18938 11.86568,0.0314 4.89896,1.405 10.49185,5.56623 13.69642,10.19042 1.52715,2.20368 4.6008,5.26096 6.83033,6.79395 5.40232,3.71456 21.89466,8.8785 40.30369,12.61956 1.52063,0.30902 2.25277,1.18044 2.25855,2.68819 0.007,1.84706 1.02912,2.54906 5.93955,4.07962 9.49223,2.9587 17.89526,8.48184 27.60363,18.14332 13.72745,13.66114 20.3505,27.96728 20.98898,45.33734 0.30232,8.2246 0.65197,9.7345 2.9528,12.75105 1.43543,1.88195 4.0175,4.14963 5.73792,5.0393 3.0049,1.55389 3.04745,1.66211 1.08083,2.74894 -1.5328,0.84709 -1.8469,1.63394 -1.25002,3.13138 1.14207,2.86523 1.08774,13.72489 -0.0775,15.5 -0.87528,1.33333 -1.09841,1.33333 -2.00816,0 -0.72504,-1.06263 -0.83395,0.0257 -0.37349,3.73246 0.49737,4.00402 0.2627,5.8235 -0.99959,7.75 -1.99226,3.04058 -3.60345,3.25625 -3.60345,0.48236 0,-1.67149 -0.33114,-1.85797 -1.853,-1.04349 -1.36833,0.73231 -2.02336,2.62166 -2.50435,7.22348 -0.37807,3.61722 -0.25278,6.47811 0.29862,6.81889 0.52249,0.32292 1.48864,5.55363 2.14701,11.6238 1.36634,12.59777 0.97442,17.43839 -4.56744,56.4125 -2.03888,14.33877 -3.49143,28.56486 -3.50229,34.30089 l -0.0186,9.80089 3.34439,-2.55089 c 1.83942,-1.40299 3.86442,-2.55089 4.5,-2.55089 0.63559,0 1.15561,-0.46583 1.15561,-1.03518 0,-0.71265 -0.60424,-0.71181 -1.93931,0.003 -2.83785,1.51877 -3.36016,-0.31709 -0.95877,-3.36996 3.60375,-4.58142 7.51827,-5.91993 17.39808,-5.94898 7.11005,-0.0209 10.24935,0.46396 14.94942,2.30894 11.41859,4.48229 21.02253,16.79653 20.4464,26.21654 -0.3158,5.16362 2.7222,12.90975 4.75692,12.12895 0.99811,-0.38301 1.34726,0.57328 1.34726,3.69 0,3.43653 -0.61187,4.81886 -3.34106,7.54805 -3.7991,3.7991 -8.12205,5.27533 -10.71188,3.65795 -1.47008,-0.91808 -2.1587,-0.4776 -4.2913,2.74499 -2.29704,3.47106 -2.35543,3.79022 -0.60989,3.33375 2.59813,-0.67973 8.95413,0.57495 8.95413,1.76725 0,0.52508 -2.27958,0.95469 -5.06574,0.95469 -6.28302,0 -7.64302,0.71823 -12.43617,6.56763 -3.17847,3.87891 -3.46079,4.55531 -1.6632,3.98477 2.47004,-0.78396 6.16511,0.12405 6.16511,1.51499 0,0.51293 -0.63459,0.93261 -1.4102,0.93261 -2.71892,0 -11.14162,7.7509 -16.5898,15.2666 -8.31918,11.4762 -13.58771,13.56098 -26.03207,10.301 -4.67403,-1.22443 -5.77985,-1.23075 -7.61628,-0.0435 -4.14056,2.67676 -14.71289,3.93935 -21.89898,2.61526 -8.11283,-1.49485 -16.93709,-5.30742 -18.33661,-7.92245 -0.57931,-1.08245 -3.32442,-3.42547 -6.10024,-5.20671 -2.77582,-1.78124 -6.90234,-5.32471 -9.17004,-7.87438 -7.04867,-7.92513 -13.64292,-24.37148 -12.11483,-30.21492 0.80729,-3.08707 2.75432,-2.202 2.93381,1.33363 0.0906,1.78504 1.12023,5.49552 2.28805,8.24552 1.16781,2.75 1.88685,3.875 1.59786,2.5 -0.289,-1.375 -1.28891,-7.675 -2.22204,-14 -1.30972,-8.87759 -2.22278,-12.14227 -4.00404,-14.31654 -1.26909,-1.54909 -3.3238,-6.04909 -4.56602,-10 -4.01336,-12.76463 -2.2902,-37.23718 4.48409,-63.68346 2.55952,-9.99213 2.91747,-21.84249 0.73049,-24.18366 -1.24431,-1.33204 -1.74376,-1.35752 -3.53991,-0.18064 -1.15016,0.75361 -3.18066,1.28732 -4.51222,1.18601 -1.33156,-0.10131 -4.83303,0.62498 -7.78105,1.61396 -3.2707,1.09724 -6.85661,1.59742 -9.19943,1.28318 -2.70922,-0.36338 -6.94867,0.47175 -14.40201,2.83706 -12.55152,3.98322 -24.97207,5.86778 -32.49081,4.92981 -4.54129,-0.56653 -15.38056,-3.93789 -22.18231,-6.89941 -1.38471,-0.60292 -1.87933,0.63544 -3.23564,8.10099 -3.4937,19.23042 -6.11039,42.40265 -8.19402,72.5627 -0.46295,6.70109 -1.05941,9.75 -1.90739,9.75 -0.85822,0 -1.44382,3.24853 -1.92373,10.67164 -0.37947,5.8694 -0.89983,12.7319 -1.15635,15.25 -0.43278,4.24831 -0.3871,4.3621 0.6337,1.57836 2.32745,-6.34697 9.28926,-20.5 10.08385,-20.5 1.28296,0 0.99181,2.79448 -0.61485,5.90141 -0.79696,1.54115 -1.41101,3.65631 -1.36455,4.70034 0.0465,1.04404 -0.8449,5.15022 -1.98079,9.12485 -1.13589,3.97463 -1.75934,7.18384 -1.38545,7.13158 1.93058,-0.26985 2.09953,0.39638 0.75826,2.99011 -3.12695,6.04685 -4.03741,15.44779 -2.51009,25.91772 2.60489,17.8567 1.1409,32.30658 -4.53221,44.73399 -4.16343,9.12032 -4.40239,11.59284 -0.43885,4.54066 1.2239,-2.17763 2.60798,-3.72281 3.07573,-3.43372 0.46775,0.28909 1.12642,-0.85421 1.46371,-2.54066 0.71379,-3.56895 2.30918,-4.09371 2.48168,-0.81628 0.13863,2.6339 0.31086,1.76851 -2.68098,13.47048 -1.29658,5.07126 -2.88473,15.19626 -3.52923,22.5 -0.64451,7.30373 -1.56251,13.70702 -2.04002,14.22952 -0.4775,0.5225 -0.86819,2.26248 -0.86819,3.86663 0,2.54846 0.28402,2.83549 2.25,2.27379 5.86097,-1.67452 22.75531,-5.50746 27,-6.12568 3.05001,-0.44423 4.75,-1.18803 4.75,-2.07828 0,-1.06583 -2.02349,-1.41826 -8.75,-1.52398 l -8.75,-0.13752 9.47094,-0.84027 c 12.86787,-1.14166 13.79654,-1.7446 6.11001,-3.96693 -9.05602,-2.61826 -10.63805,-5.02057 -4.08095,-6.1969 1.375,-0.24667 -0.2,-0.51667 -3.5,-0.59999 -7.55231,-0.19069 -9.59662,-1.2827 -5.77838,-3.08662 5.86064,-2.76884 57.64921,-4.83179 76.77838,-3.05839 7.15,0.66285 23.35,1.58076 36,2.03979 19.11116,0.69349 24.77534,1.2584 33.5,3.34108 12.39235,2.95819 22.60258,6.38439 29.50962,9.90238 l 4.99038,2.54178 -7,-0.49782 c -3.85,-0.27379 -9.31898,-1.07491 -12.15329,-1.78025 -2.83432,-0.70535 -6.20932,-1.13568 -7.5,-0.95629 -1.29069,0.17938 -11.948,0.8732 -23.68291,1.54182 -11.73492,0.66861 -20.73492,1.53592 -20,1.92735 0.73491,0.39143 9.4362,1.23982 19.3362,1.88531 25.43012,1.65807 39.85427,3.05331 48.33797,4.6757 4.03588,0.77181 7.49124,1.40329 7.67857,1.40329 0.18733,0 0.95966,0.61906 1.71629,1.37569 0.75663,0.75663 3.15128,2.31174 5.32143,3.4558 4.74637,2.50219 2.16804,2.91367 -4.24861,0.67805 -2.30689,-0.80374 -8.49439,-1.76361 -13.75,-2.13304 -8.47949,-0.5961 -9.55565,-0.4862 -9.55565,0.97585 0,1.49383 -3.05654,1.66027 -32.75,1.78338 -24.66781,0.10227 -31.02251,0.36067 -25.75,1.04706 15.04119,1.95811 25.64419,5.70049 33.5,11.82398 l 2.5,1.94871 -7.82791,0.0222 c -4.30535,0.0122 -13.30535,-0.48188 -20,-1.09802 -12.05653,-1.10963 -27.57511,-0.10085 -34.60925,2.24977 -2.17557,0.72701 -2.03395,0.78903 0.93716,0.41043 11.06554,-1.41007 29.34041,-1.65419 38,-0.50762 5.225,0.69182 13.325,1.53239 18,1.86793 l 8.5,0.61008 -11.5,1.22932 c -6.325,0.67612 -15.55,1.53841 -20.5,1.9162 -8.72125,0.66561 -8.89934,0.72813 -5.75,2.01839 3.51073,1.43831 4.29753,4.21149 1.78622,6.2957 -0.81562,0.6769 -5.93445,1.46118 -11.56003,1.77117 l -10.09625,0.55633 3.06003,2.79491 c 3.63822,3.32301 3.86299,5.34843 0.81003,7.29936 -6.58827,4.21009 -22.01474,6.36985 -53.25,7.45516 l -21,0.72967 18,0.77053 c 9.9,0.42379 18.98546,1.25564 20.18992,1.84855 1.22567,0.60336 4.30786,0.82183 7,0.49618 2.64554,-0.32002 8.74758,-0.0756 13.56008,0.54325 7.1419,0.91832 8.75,1.4387 8.75,2.83148 0,1.90532 -1.50118,2.21187 -19.43022,3.96775 -6.01162,0.58874 -11.35219,1.33124 -11.86794,1.65 -2.59327,1.60272 -9.99171,2.47079 -28.20184,3.30896 -11,0.50631 -21.8,1.48255 -24,2.16943 -2.44539,0.7635 -10.04706,1.26607 -19.55902,1.2931 l -15.55901,0.0442 -1.10755,11.60346 c -0.74243,7.77819 -2.08992,14.53636 -4.08742,20.5 -1.63893,4.8931 -3.4961,13.17154 -4.12706,18.39654 -2.40494,19.91549 -5.63964,28.45814 -14.099,37.23457 -2.72852,2.83079 -4.96094,5.62672 -4.96094,6.21318 0,0.58646 -2.31586,5.78691 -5.14636,11.55656 -6.15759,12.55153 -13.25232,20.19117 -23.05147,24.82193 -5.83821,2.75896 -7.07517,2.96771 -16.80217,2.83553 -5.775,-0.0785 -11.625,-0.28215 -13,-0.45263 z m -33.58638,-34.8434 c -2.97749,-3.09885 -5.41362,-6.00708 -5.41362,-6.46274 0,-0.45566 -2.5875,-2.5906 -5.75,-4.7443 -5.78277,-3.93814 -20.61677,-19.26426 -23.06335,-23.82848 -2.15119,-4.01316 -0.76576,-4.96285 2.26982,-1.55593 1.5535,1.74353 3.19155,2.94325 3.64011,2.66602 0.44855,-0.27722 1.54722,0.61262 2.44147,1.97742 1.47322,2.24842 8.46195,7.21486 8.46195,6.01336 0,-0.2758 -0.7875,-1.71905 -1.75,-3.20723 -1.16369,-1.79924 0.74118,-0.61483 5.68556,3.53518 7.6543,6.42457 9.77588,7.53194 8.60408,4.49096 -1.24507,-3.23111 -3.50993,-13.72444 -3.52486,-16.33102 -0.01,-1.72042 -0.84837,-3.02714 -2.51478,-3.91898 -2.49213,-1.33375 -2.89352,-2.41718 -2.5291,-6.82651 0.18474,-2.2352 0.0976,-2.2645 -2.21913,-0.7465 -1.32628,0.86902 -2.7505,1.24095 -3.16494,0.82652 -0.41443,-0.41443 -4.53071,-0.75351 -9.14729,-0.75351 -7.75705,0 -8.59579,-0.20201 -11.057,-2.66307 -2.58409,-2.58394 -2.78188,-5.83693 -0.35491,-5.83693 0.59972,0 0.79378,0.47994 0.43125,1.06653 -0.36254,0.5866 0.17341,1.69729 1.19098,2.4682 2.25596,1.70911 3.35014,1.82642 3.35014,0.35919 0,-0.60834 1.09757,-1.96943 2.43905,-3.02463 1.97756,-1.55556 5.56095,-7.04759 5.56095,-8.52293 0,-0.1905 -2.07681,-0.34636 -4.61513,-0.34636 -4.03899,0 -5.05569,0.46814 -8.14417,3.75 -2.34395,2.49071 -3.30971,3.07838 -2.87589,1.75 0.42082,-1.28859 -0.41672,-0.75503 -2.35457,1.5 -4.1364,4.81341 -4.53955,7.1412 -2.52544,14.5819 2.63993,9.75271 9.88466,18.79454 25.5152,31.8444 8.3251,6.95058 23.83311,17.5737 25.65472,17.5737 0.64489,0 -1.2636,-2.53542 -4.2411,-5.63426 z m 53.36167,-15.94861 c 0.15141,-1.05442 0.77861,-3.58243 1.39378,-5.61779 0.85649,-2.83384 0.81226,-4.82483 -0.18884,-8.5 -1.86402,-6.84308 -5.43181,-14.71377 -8.48327,-18.71444 -2.72944,-3.57848 -10.93397,-10.18618 -15.82053,-12.74141 -2.44493,-1.27848 -2.62113,-1.6445 -1.31393,-2.72938 1.15825,-0.96126 2.01002,-0.98511 3.65922,-0.10248 4.01517,2.14885 3.18894,0.14644 -1.04149,-2.52411 -9.07117,-5.72638 -21.05783,-7.7124 -33.56334,-5.56099 -8.5906,1.4779 -17.41689,5.34206 -17.41689,7.62514 0,1.05631 -0.5392,1.4554 -1.47908,1.09473 -0.96947,-0.37202 -2.49354,0.9069 -4.42346,3.71194 l -2.94438,4.27952 5.43275,1.84665 c 5.37718,1.82776 5.45569,1.82565 7.67347,-0.20608 6.59969,-6.04604 17.74834,-8.46912 23.03349,-5.00616 3.11697,2.04232 5.40567,8.18121 3.78028,10.13968 -0.60917,0.73401 -0.82447,2.07232 -0.47845,2.97404 0.34602,0.90171 0.0647,2.31962 -0.62525,3.15091 -0.6899,0.83129 -0.91606,1.83806 -0.50256,2.23727 0.4135,0.3992 1.43251,-0.28667 2.26447,-1.52417 1.30191,-1.93651 2.3934,-2.25 7.83399,-2.25 5.39866,0 6.54854,0.3244 7.87803,2.22251 2.02006,2.88405 2.10568,9.77749 0.12143,9.77749 -0.7894,0 -2.0048,-1.575 -2.70089,-3.5 -1.20405,-3.32974 -1.4962,-3.5 -6.00571,-3.5 -2.60705,0 -5.02936,0.46804 -5.3829,1.04008 -0.41514,0.6717 0.2522,0.81545 1.88415,0.40586 3.19512,-0.80193 5.14449,0.24201 3.70061,1.98178 -0.77047,0.92836 0.0947,2.06246 3.36492,4.41097 2.42112,1.73872 4.72389,3.16131 5.11726,3.16131 0.39337,0 3.2448,1.72604 6.33652,3.83564 3.09172,2.10961 7.2679,4.61647 9.2804,5.5708 2.01249,0.95434 4.45464,2.61425 5.427,3.68869 2.07675,2.29478 3.80243,2.01549 4.1892,-0.678 z m -46.40742,-30.69685 c 1.47441,-1.07812 1.57343,-1.74447 0.62857,-4.22965 -1.44814,-3.8089 -2.57668,-4.45673 -7.7961,-4.47532 -5.84796,-0.0208 -9.94969,2.18597 -9.62087,5.17618 0.13963,1.26968 0.29136,2.70352 0.3372,3.18632 0.0458,0.48279 1.77083,0.63397 3.83333,0.33594 2.0625,-0.29802 4.65,-0.16217 5.75,0.30191 2.92323,1.23327 4.89318,1.14854 6.86787,-0.29538 z M 140.62186,691.26235 c -0.6875,-0.27741 -1.8125,-0.27741 -2.5,0 -0.6875,0.27741 -0.125,0.50439 1.25,0.50439 1.375,0 1.9375,-0.22698 1.25,-0.50439 z m 403.34774,-2.37488 c 1.88481,-0.71661 2.40719,-1.35791 1.69017,-2.07493 -0.71702,-0.71702 -2.99114,-0.65347 -7.35792,0.20565 -4.70876,0.92639 -5.82423,1.43749 -4.37507,2.00464 2.82903,1.10717 6.91972,1.05204 10.04282,-0.13536 z M 208.29598,664.96524 c 0.98596,-0.52767 2.56333,-2.1356 3.50527,-3.57319 1.63798,-2.49987 1.63325,-2.57102 -0.10838,-1.63243 -2.18345,1.17669 -6.98128,6.16501 -5.92958,6.16501 0.40703,0 1.54674,-0.43173 2.53269,-0.95939 z m 436.32588,-4.70289 c -0.6875,-0.27741 -1.8125,-0.27741 -2.5,0 -0.6875,0.27741 -0.125,0.50439 1.25,0.50439 1.375,0 1.9375,-0.22698 1.25,-0.50439 z M 431.63561,659.2207 c -1.22994,-0.23736 -3.47994,-0.24351 -5,-0.0136 -1.52006,0.22985 -0.51375,0.42406 2.23625,0.43157 2.75,0.008 3.99369,-0.18056 2.76375,-0.41792 z m 7.23625,-5.29607 c 1.29888,-0.55815 -1.15505,-0.83432 -7,-0.78781 -6.84167,0.0545 -8.04074,0.24337 -5,0.78781 5.60632,1.0038 9.66404,1.0038 12,0 z m 107.21452,-11.66448 c 2.35859,-2.57498 3.67082,-3.35018 4.41364,-2.60736 0.74283,0.74283 0.7218,1.68367 -0.0707,3.16448 -1.10213,2.05934 -0.95042,2.10731 6.65736,2.10525 8.38142,-0.002 60.30848,-5.65248 61.22894,-6.66235 0.30593,-0.33565 -11.87876,-0.34596 -27.07709,-0.0229 -15.19833,0.32305 -27.94399,0.27237 -28.32368,-0.11264 -0.3797,-0.385 -4.90558,-1.16213 -10.05752,-1.72696 l -9.36717,-1.02697 -1.94389,5.27697 c -1.70342,4.62415 -1.75045,5.27696 -0.38016,5.27696 0.86006,0 3.07418,-1.64901 4.92027,-3.66448 z m 19.46809,-14.32953 c 3.61585,-0.005 4.81189,-0.41329 5.25006,-1.79385 0.46246,-1.4571 3.11128,-2.17404 14.31739,-3.87523 l 13.74994,-2.08736 -10,-0.1076 c -6.79394,-0.0731 -12.88545,0.54541 -19,1.92921 -4.95,1.12025 -12.7125,2.29395 -17.25,2.60823 -7.42603,0.51434 -8.25,0.77344 -8.25,2.59423 0,1.91886 0.42399,1.98981 8.25,1.38059 4.5375,-0.35322 10.35718,-0.64492 12.93261,-0.64822 z m 77.18704,-20.08459 c 5.89435,-0.59323 18.01001,-1.45096 26.92368,-1.90605 14.01537,-0.71558 12.4208,-0.77979 -11.79333,-0.47497 -27.90574,0.35131 -34.97202,0.88686 -33.93078,2.57162 0.72411,1.17164 5.77384,1.12045 18.80043,-0.1906 z m -47.36965,-4.9214 c 1.03904,-0.67148 -0.65116,-0.93363 -5.5,-0.85305 -5.68244,0.0944 -6.34122,0.255 -3.5,0.85305 5.15014,1.08406 7.32254,1.08406 9,0 z m -187.5,-13 c 0,-2.90457 -0.41444,-4 -1.51335,-4 -4.49818,0 -20.83577,-14.40011 -27.4053,-24.1553 -3.94207,-5.85365 -4.85132,-9.11103 -1.87497,-6.71714 1.24221,0.99911 1.08401,0.35237 -0.58156,-2.37756 -1.25837,-2.0625 -2.11547,-3.75 -1.90467,-3.75 0.2108,0 6.57541,6.07159 14.14358,13.49241 7.56817,7.42083 12.9449,13.1944 11.94829,12.83017 -4.48667,-1.63977 -12.33792,-7.52084 -17.25445,-12.92465 -2.95135,-3.24386 -4.41597,-4.50556 -3.25471,-2.80377 4.21001,6.1696 11.52153,13.50116 19.33817,19.39118 8.68235,6.54235 10.45768,7.2513 9.42732,3.76466 -0.36571,-1.2375 -1.6831,-6.975 -2.92753,-12.75 -2.62479,-12.18071 -4.49229,-16.5106 -9.22128,-21.37988 -1.88075,-1.93655 -3.41954,-3.81603 -3.41954,-4.17663 0,-0.36061 -1.125,-1.54057 -2.5,-2.62215 -1.375,-1.08158 -2.5,-2.55638 -2.5,-3.27734 0,-1.58331 -4.34817,-2.5733 -6.18535,-1.40828 -2.40901,1.52762 -5.6488,0.89058 -7.51107,-1.47691 -2.95806,-3.76056 -5.63428,-4.78809 -9.21742,-3.539 -1.71115,0.59651 -3.78055,0.8277 -4.59867,0.51376 -3.38589,-1.29928 -0.65637,13.96588 3.82047,21.36643 1.16449,1.925 6.18409,7.7926 11.15465,13.03911 4.97057,5.24651 12.39347,13.21904 16.49534,17.71673 7.51285,8.23781 8.4827,8.9166 13.04205,9.12816 2.26933,0.1053 2.5,-0.25307 2.5,-3.884 z m 141.18933,-55.75 c -0.25153,-0.9625 -0.45733,-0.175 -0.45733,1.75 0,1.925 0.2058,2.7125 0.45733,1.75 0.25152,-0.9625 0.25152,-2.5375 0,-3.5 z m -183.09699,-6 c 0.0115,-0.9625 0.3653,-3.1 0.78623,-4.75 l 0.76532,-3 -3.82195,4 -3.82194,4 2.5,0.63169 c 1.375,0.34742 2.74107,0.68492 3.03571,0.75 0.29465,0.0651 0.54513,-0.66919 0.55663,-1.63169 z m 86.40766,-5.86803 c 0,-0.825 -0.45,-1.22189 -1,-0.88197 -0.55,0.33992 -1,1.29303 -1,2.11803 0,0.825 0.45,1.22189 1,0.88197 0.55,-0.33992 1,-1.29303 1,-2.11803 z M 152.91032,510.38617 c -0.38688,-3.09646 -0.9027,-5.43063 -1.14628,-5.18705 -0.24358,0.24358 -0.14314,2.99313 0.2232,6.11013 0.36635,3.11699 0.88217,5.45116 1.14629,5.18705 0.26411,-0.26412 0.16367,-3.01367 -0.22321,-6.11013 z m 392.06571,-5.19071 c -0.33229,-0.33229 -0.56864,0.25834 -0.52522,1.3125 0.048,1.16495 0.28494,1.4019 0.60416,0.60417 0.28887,-0.72187 0.25335,-1.58438 -0.0789,-1.91667 z m -394,-4 c -0.3323,-0.33229 -0.56864,0.25834 -0.52522,1.3125 0.048,1.16495 0.28494,1.4019 0.60416,0.60417 0.28887,-0.72187 0.25335,-1.58438 -0.0789,-1.91667 z M 739.0278,339.6556 c -0.27393,-0.67703 -0.48137,0.11903 -0.46099,1.76903 0.0204,1.65 0.2445,2.20394 0.49804,1.23097 0.25354,-0.97297 0.23687,-2.32297 -0.0371,-3 z m -276.65594,-5.88596 c 0,-2.12942 -0.0267,-2.13251 -2.25,-0.26065 -1.2375,1.04188 -2.4375,2.01162 -2.66667,2.15498 -0.22916,0.14336 0.78334,0.26066 2.25,0.26066 2.06393,0 2.66667,-0.48708 2.66667,-2.15499 z m 5,-37.84501 c 0,-0.55 -0.47656,-1 -1.05902,-1 -0.58246,0 -0.7809,0.45 -0.44098,1 0.33992,0.55 0.81648,1 1.05902,1 0.24254,0 0.44098,-0.45 0.44098,-1 z m -131.29378,-7.37288 c 0.36904,-0.36905 -0.26254,-2.59248 -1.40351,-4.94096 -1.14098,-2.34848 -2.68792,-6.95111 -3.43764,-10.22806 l -1.36312,-5.9581 -0.30567,5.32004 c -0.16811,2.92602 0.34564,7.54183 1.14167,10.25734 0.79603,2.71551 1.10578,5.14838 0.68833,5.40638 -1.14693,0.70884 -3.78049,-2.62331 -4.56847,-5.78033 -0.3839,-1.53811 -0.90176,-2.59281 -1.1508,-2.34377 -0.24904,0.24904 -0.006,2.06999 0.53949,4.04657 0.54576,1.97657 0.62734,3.59377 0.1813,3.59377 -0.44604,0 -1.11054,-1.19353 -1.47667,-2.65229 -0.36612,-1.45876 -2.04232,-3.93827 -3.72488,-5.51002 l -3.0592,-2.85772 0.71641,5.76002 c 0.39402,3.168 0.95715,6.15279 1.25141,6.63286 0.59777,0.97523 14.91907,0.30655 15.97135,-0.74573 z m -22.34459,-1.12712 c 0.31658,-0.825 0.17268,-1.5 -0.31977,-1.5 -1.28952,0 -3.98217,-5.77455 -4.65517,-9.98327 -0.31669,-1.98041 -0.0759,-5.45711 0.53502,-7.726 0.81973,-3.04423 0.81459,-4.77538 -0.0196,-6.60624 -0.89257,-1.95899 -0.76695,-3.60705 0.59704,-7.83275 0.9501,-2.94346 2.36185,-6.36424 3.13721,-7.60174 1.22933,-1.96203 1.21667,-2.25 -0.0989,-2.25 -0.96003,0 -1.93311,-1.68567 -2.67586,-4.6354 l -1.16721,-4.6354 -1.88346,6.1354 c -1.0359,3.37447 -2.20464,6.12851 -2.59719,6.12009 -2.10421,-0.0451 -3.62008,-2.28559 -4.13521,-6.1118 l -0.57852,-4.29713 -3.12369,5.96212 c -2.92009,5.5735 -6.17574,16.68752 -6.59606,22.51737 -0.10133,1.40538 0.41602,4.00437 1.14965,5.77552 1.01694,2.45511 1.77777,3.0794 3.20199,2.62737 1.02746,-0.3261 1.86811,-0.35425 1.86811,-0.0625 0,0.2917 0.89343,2.79703 1.98541,5.56739 2.46385,6.25084 1.62265,6.66588 -1.08843,0.53702 -2.27515,-5.14333 -2.83665,-5.63524 -2.11332,-1.85138 0.27847,1.45675 0.10357,2.4006 -0.38867,2.09746 -0.49225,-0.30315 -1.00722,0.97997 -1.14439,2.85137 -0.17156,2.3406 0.17956,3.40255 1.125,3.40255 0.75592,0 2.79174,0.28347 4.52405,0.62993 3.07773,0.61555 3.12625,0.56839 2.125,-2.0651 -2.11771,-5.57 -0.40484,-17.82123 2.65584,-18.99572 1.6231,-0.62284 1.64459,-0.5638 3.61406,9.93089 2.25437,12.01287 4.41912,16.2945 6.06708,12 z m -9.78194,-30.92512 c 0.58166,-3.95931 3.39361,-11.93492 3.99561,-11.33291 0.17873,0.17872 -0.77692,3.68489 -2.12365,7.79149 -1.59922,4.8765 -2.24857,6.10497 -1.87196,3.54142 z m 2.90359,29.67512 c -0.40188,-0.9625 -1.07896,-3.1 -1.50463,-4.75 -0.71247,-2.76177 -0.78097,-2.80148 -0.86263,-0.5 -0.12408,3.49679 0.93069,7 2.1076,7 0.55489,0 0.66907,-0.76949 0.25966,-1.75 z m -16.80632,-11.07418 c -1.06247,-1.82829 -2.51933,-5.20329 -3.23747,-7.5 l -1.3057,-4.17582 -0.0669,5.09107 c -0.0725,5.51854 1.96472,13.53023 4.09921,16.12067 1.17046,1.42047 1.40181,1.1391 1.88825,-2.29647 0.40058,-2.82921 0.0185,-4.83736 -1.3774,-7.23945 z m 54.16578,9.07418 c 1.99007,-1.68706 2.01693,-2.05571 0.74697,-10.25 -0.72454,-4.675 -1.585,-7.825 -1.91213,-7 -0.53609,1.35196 -2.67758,15.80597 -2.67758,18.07236 0,1.43774 1.57407,1.10089 3.84274,-0.82236 z m 34.85783,-6.23091 c 1.39993,-0.8835 0.35635,-0.99646 -4.70057,-0.50881 -3.575,0.34475 -6.95,1.10306 -7.5,1.68513 -1.35503,1.43405 9.76285,0.36212 12.20057,-1.17632 z m -59.01702,-19.92075 c 3.23163,-1.94688 6.69171,-3.07303 10.51559,-3.4225 5.34688,-0.48864 5.83857,-0.34571 7.95491,2.31256 2.04463,2.56819 2.37401,2.67794 3.51906,1.1725 2.94085,-3.86647 0.0971,-5.64967 -10.67311,-6.69266 -7.11063,-0.6886 -10.97606,0.30648 -14.94927,3.84837 l -2.44927,2.18339 1.72232,-2.75 c 1.90759,-3.04581 0.84304,-3.74766 -1.51679,-1 -1.9289,2.2459 -2.96982,5.17752 -2.25122,6.34024 0.95917,1.55196 3.12736,1.0206 8.12778,-1.9919 z m -13.06088,-27.809 c -0.14766,-0.14766 -1.45298,0.96787 -2.9007,2.47897 -2.48539,2.59419 -2.56858,2.99804 -1.49141,7.23957 l 1.14082,4.49212 1.75988,-6.97109 c 0.96794,-3.8341 1.63907,-7.09191 1.49141,-7.23957 z m 35.63991,9.07457 c 1.29627,-3.76247 1.26092,-4.34005 -0.39767,-6.49676 -1.8137,-2.35839 -1.82052,-2.34155 -1.84267,4.54952 -0.0122,3.80416 0.16672,6.72771 0.39767,6.49676 0.23094,-0.23095 1.06015,-2.27823 1.84267,-4.54952 z m -23.70286,-3.86391 c 0.89873,-5.09483 0.18495,-4.36281 -1.93355,1.98297 -1.34766,4.03678 -1.38901,4.70137 -0.2178,3.5 0.79516,-0.81563 1.76326,-3.28297 2.15135,-5.48297 z m -1.78097,-10.54212 c -0.15331,-0.39305 -1.29125,-0.33387 -2.52875,0.13152 -2.06368,0.77608 -2.24184,1.44917 -2.1514,8.12838 l 0.0986,7.28222 2.43015,-7.41374 c 1.33659,-4.07756 2.30472,-7.73533 2.1514,-8.12838 z m 18.3822,1.56067 c 0.24248,-2.13226 -0.12256,-3.07172 -1.28166,-3.29842 -1.99968,-0.3911 -2.87662,2.53477 -2.78137,9.27987 l 0.0706,5 1.82669,-4 c 1.00468,-2.2 1.97926,-5.34165 2.16574,-6.98145 z m -15.55678,1.75228 c -0.33229,-0.33229 -0.56864,0.25834 -0.52522,1.3125 0.048,1.16495 0.28494,1.4019 0.60416,0.60417 0.28887,-0.72188 0.25335,-1.58438 -0.0789,-1.91667 z m 5.79658,-7.14437 c -0.17297,-0.20544 -0.93438,-0.13566 -1.69202,0.15507 -0.80418,0.30859 -1.43077,2.12893 -1.50543,4.37354 l -0.12791,3.84493 1.81993,-4 c 1.00095,-2.2 1.6784,-4.16809 1.50543,-4.37354 z m 248.37483,-70.87646 c -0.84392,-0.9625 -2.29685,-3.25432 -3.22873,-5.09293 -0.93188,-1.83861 -1.94081,-3.09644 -2.24208,-2.79517 -0.80803,0.80803 4.59034,9.6381 5.89237,9.6381 0.65652,0 0.48365,-0.71759 -0.42156,-1.75 z M 204.68148,615.4472 c -5.39742,-3.63483 -7.20867,-5.52257 -5.29881,-5.52257 1.39081,0 9.1227,5.25101 10.91915,7.41561 2.13963,2.5781 -0.10247,1.82291 -5.62034,-1.89304 z M 635.1313,593.93521 c -9.75731,-0.3621 -18.08231,-1.02338 -18.5,-1.4695 -0.84463,-0.90214 34.09574,0.27226 42.74056,1.43657 l 5.5,0.74075 -6,-0.0247 c -3.3,-0.0136 -13.98325,-0.32099 -23.74056,-0.68309 z m -53.77588,-3.53038 c -1.70754,-2.05746 -0.5894,-3.07119 5.54876,-5.03065 6.47798,-2.06793 46.32272,-3.83296 67.46768,-2.98865 14.23817,0.56851 40.01417,4.21994 41.70169,5.90745 2.10544,2.10544 -2.26253,2.54697 -16.24114,1.6417 -26.84188,-1.7383 -88.33148,-0.77273 -95.49061,1.49949 -0.92817,0.29459 -2.27203,-0.16862 -2.98638,-1.02934 z M 361.75672,323.76267 c -5.78589,-4.33603 -13.38486,-12.31483 -13.38486,-14.05388 0,-2.48946 0.74351,-2.24243 3.65112,1.21307 1.68696,2.00483 4.39719,3.53769 8.18544,4.62953 9.57999,2.76111 13.7101,6.93994 9.22918,9.33806 -2.84378,1.52194 -4.46358,1.28432 -7.68088,-1.12678 z m 5.55448,-2.41113 c -1.46708,-1.76772 -8.23292,-5.42691 -10.03436,-5.42691 -2.2211,0 8.0817,6.85048 10.46746,6.95996 0.47985,0.022 0.28495,-0.66785 -0.4331,-1.53305 z m 14.1381,-9.8336 c -2.02112,-2.4353 -0.21703,-4.02346 2.16794,-1.90845 1.48787,1.31946 2.16622,1.47379 2.48405,0.56514 0.24048,-0.6875 1.55773,-1.25 2.92723,-1.25 1.83121,0 2.40216,0.463 2.15804,1.75 -0.44773,2.36035 -7.93972,3.00921 -9.73726,0.84331 z m -27.06558,-3.84331 c -2.42656,-1.2375 -4.59687,-2.84989 -4.82292,-3.5831 -0.31442,-1.01982 0.31849,-0.95586 2.69324,0.27217 4.95965,2.56474 8.31709,3.69237 7.61595,2.55791 -0.86391,-1.39784 0.85238,-1.24647 2.30187,0.20302 3.44634,3.44634 -1.43314,3.79093 -7.78814,0.55 z m 38.33322,-3.29313 c -0.32569,-0.84872 -0.3415,-1.79378 -0.0351,-2.10013 0.87571,-0.87571 2.69007,0.60965 2.69007,2.20228 0,1.91885 -1.90756,1.84546 -2.65492,-0.10215 z m 162.65492,-19.80032 c 0,-2.61452 8.38272,-21.65655 9.53369,-21.65655 0.275,0 -0.57486,2.1375 -1.88858,4.75 -1.31372,2.6125 -3.4066,7.5625 -4.65084,11 -1.91323,5.28575 -2.99427,7.41823 -2.99427,5.90655 z M 397.0964,282.75439 c -2.20027,-1.35984 0.0245,-1.89812 10.39253,-2.51441 5.71061,-0.33945 10.60793,-0.94549 10.88293,-1.34675 0.275,-0.40126 4.2125,-1.05518 8.75,-1.45316 9.85214,-0.86412 11.04391,0.55181 2.5,2.97022 -3.1625,0.89516 -6.60013,1.87729 -7.63918,2.18252 -2.88213,0.84662 -23.56062,0.98088 -24.88628,0.16158 z m -8.15204,-3.74965 c -1.87552,-2.07242 -1.86804,-2.0804 2.02251,-2.15906 l 3.90499,-0.0789 -4,-1.28144 c -2.2,-0.70478 -6.25,-1.81833 -9,-2.47455 -6.16986,-1.47227 -7.25273,-2.52004 -7.84026,-7.58612 -0.25514,-2.2 -1.40796,-6.57626 -2.56182,-9.72502 -3.24449,-8.85388 -2.42107,-22.69711 1.82161,-30.62462 3.16653,-5.91671 12.1248,-7.75959 19.75777,-4.06453 5.14889,2.49253 7.945,6.15896 10.49665,13.76381 1.16117,3.46072 1.65857,4.29403 1.28355,2.15036 -1.59749,-9.13151 -1.65537,-10.75968 -0.40983,-11.52946 0.80214,-0.49575 1.95904,0.0545 3.11428,1.48113 2.05405,2.53665 2.4107,1.98686 0.73828,-1.13809 -0.69103,-1.29121 -0.71815,-1.81908 -0.073,-1.42033 0.56474,0.34903 1.54454,2.20334 2.17732,4.12068 1.30323,3.94882 2.94584,4.60483 3.09508,1.23607 0.0951,-2.14748 0.13368,-2.13608 0.84594,0.25 0.41045,1.375 0.58466,7.9 0.38713,14.5 -0.3511,11.73178 -0.32434,11.91059 1.1971,8 0.85593,-2.2 2.1501,-7.375 2.87593,-11.5 1.25474,-7.13094 1.35557,-7.3205 2.04907,-3.85221 1.03198,5.16115 -0.98644,13.65764 -5.25358,22.11479 -2.00844,3.98058 -3.67461,7.46242 -3.7026,7.73742 -0.16197,1.59132 -2.43913,4.02443 -5.49867,5.87525 -4.19363,2.53687 -3.82301,2.62452 2.29012,0.54156 3.38008,-1.1517 5.09072,-2.44626 6.27671,-4.75 2.04522,-3.97274 7.43317,-22.39465 7.43317,-25.4147 0,-3.93863 2.77035,-2.57088 3.49633,1.72616 1.16545,6.89824 -1.56461,14.61309 -7.60606,21.49393 -1.7036,1.94029 -2.79347,3.5278 -2.42193,3.5278 1.13386,0 9.63384,-5.09499 17.18704,-10.30212 3.93545,-2.71308 7.64795,-4.62844 8.25,-4.25636 2.4613,1.52117 1.14463,6.30727 -2.65538,9.65232 -2.0625,1.81556 -3.06527,3.04073 -2.22837,2.72261 5.01283,-1.90551 17.24457,-3.95025 18.1592,-3.03562 1.7135,1.7135 -0.0162,4.77025 -3.69097,6.52261 -4.04569,1.92926 -4.40061,1.31947 -1.23986,-2.13021 l 2.25,-2.45567 -4.5,0.59827 c -2.475,0.32904 -6.79138,1.70934 -9.59195,3.06733 -10.08003,4.88779 -20.94065,6.90565 -18.83559,3.49959 0.38458,-0.62225 3.6756,-2.46761 7.31338,-4.10079 6.10043,-2.7388 13.11421,-8.07425 13.11421,-9.9761 0,-0.44097 -2.8125,1.28844 -6.25,3.84314 -10.48249,7.79044 -25.67534,14.29301 -39.77251,17.02273 -1.72802,0.33461 -3.11542,-0.1667 -4.40499,-1.59166 z m 16.73416,-12.14477 c 0.49141,-1.87915 0.41844,-1.87578 -2.36958,0.10946 -4.06666,2.89572 -4.49921,4.04712 -1.07151,2.85222 1.61374,-0.56255 3.16223,-1.89531 3.44109,-2.96168 z m -10.35354,-1.4111 c 5.00621,-2.58881 7.04688,-7.22976 7.04688,-16.02625 0,-9.98908 -1.4294,-14.56818 -6.261,-20.05717 -4.84076,-5.49938 -8.97477,-6.0078 -13.74823,-1.69082 -2.67003,2.4147 -3.22404,3.8958 -4.54385,12.1475 -1.94198,12.14158 -0.56882,17.95276 5.54797,23.47892 4.38258,3.9594 7.40519,4.50229 11.95823,2.14782 z m 10.73621,-22.27424 c -0.25153,-0.9625 -0.45733,-0.175 -0.45733,1.75 0,1.925 0.2058,2.7125 0.45733,1.75 0.25152,-0.9625 0.25152,-2.5375 0,-3.5 z m 2.99775,-3.01166 c -0.25029,-0.95609 -0.446,0.0617 -0.4349,2.26166 0.0111,2.2 0.21589,2.98225 0.45508,1.73834 0.23919,-1.24391 0.23011,-3.04391 -0.0202,-4 z m -135.08205,26.59172 c 0.48463,-0.78414 0.18014,-0.9616 -0.92337,-0.53814 -2.51733,0.96599 -9.79836,-2.01269 -13.36146,-5.46619 -5.33697,-5.1728 -7.77741,-12.00561 -7.79537,-21.82573 -0.0132,-7.23671 0.40453,-9.41053 2.81093,-14.62644 2.9221,-6.33373 6.09466,-8.91295 9.40239,-7.64396 3.31824,1.27302 10.05803,6.27423 13.05441,9.68692 2.71706,3.09457 4.27024,6.49065 5.52628,12.08348 0.75129,3.34532 0.58557,-4.646 -0.21256,-10.25 -0.77936,-5.47215 0.0858,-6.68254 2.50167,-3.5 0.74524,0.98173 1.34241,4.33568 1.36025,7.63976 0.0229,4.24847 0.48337,6.21995 1.65227,7.07467 1.38926,1.01586 1.46522,1.90878 0.53236,6.25854 -2.18177,10.17326 -9.17727,22.17537 -12.96185,22.23851 -1.51411,0.0253 -2.06009,-0.36424 -1.58595,-1.13142 z m 1.70929,-11.03859 c 2.55777,-3.43937 3.36214,-12.30373 1.66615,-18.36122 -0.76693,-2.7392 -3.03187,-6.49559 -5.7179,-9.4831 -3.62072,-4.02711 -5.06019,-4.94715 -7.74023,-4.94715 -6.68976,0 -8.69036,8.54104 -5.15313,22 0.93957,3.575 2.83864,8.21226 4.22015,10.30503 2.31446,3.50601 2.83399,3.78105 6.61127,3.5 3.08777,-0.22976 4.59651,-0.97344 6.11369,-3.01356 z m 290.68568,4.20853 c 0.5887,-1.1 1.29537,-2 1.57037,-2 0.275,0 0.0183,0.9 -0.57037,2 -0.5887,1.1 -1.29537,2 -1.57037,2 -0.275,0 -0.0183,-0.9 0.57037,-2 z M 354.5381,239.41522 c -4.35872,-9.08381 -8.06586,-14.92613 -14.63695,-23.0673 l -4.09763,-5.07672 -6.96583,1.35789 c -13.70841,2.67226 -26.94522,11.08292 -33.59606,21.34692 -1.76363,2.72174 -3.58081,4.94862 -4.03818,4.94862 -2.64129,0 3.06013,-10.10224 8.95621,-15.86936 8.34977,-8.16714 18.90252,-13.28279 28.69686,-13.91135 l 7.57308,-0.48601 7.25418,7.38336 c 6.69832,6.8176 7.61562,8.28606 11.97113,19.16387 5.15065,12.86366 5.1071,12.71949 3.84162,12.71949 -0.48143,0 -2.71273,-3.82923 -4.95843,-8.50941 z m 149.78163,-9.39318 c 1.79724,-3.35817 9.89924,-6.48613 18.55213,-7.16245 l 8,-0.6253 -7.1849,-0.15483 c -3.9517,-0.0852 -8.3392,0.28403 -9.75,0.82042 -3.95074,1.50207 -3.03633,-0.51314 1.1849,-2.61131 2.68804,-1.33609 5.74248,-1.83087 10.78584,-1.74716 10.99452,0.18249 18.56989,2.83252 29.1037,10.18111 1.77366,1.23734 1.76715,1.26537 -0.13954,0.60096 -5.06189,-1.76387 -16.78856,-4.44362 -17.28277,-3.94941 -0.30281,0.30281 -0.0256,0.55056 0.6161,0.55056 0.64167,0 1.16667,0.46583 1.16667,1.03518 0,0.6849 -0.71172,0.65429 -2.10332,-0.0905 -1.2859,-0.68819 -5.85233,-0.99334 -11.75,-0.78518 -8.07273,0.28493 -10.56032,0.78917 -15.24635,3.09048 -6.6394,3.26061 -7.29383,3.35378 -5.95246,0.84741 z M 251.37186,211.59607 c 0,-2.62812 6.24364,-10.67995 10.97442,-14.15266 6.21228,-4.56024 12.2579,-7.18143 18.52558,-8.03213 2.75,-0.37326 7.8599,-1.53545 11.35534,-2.58265 3.49543,-1.0472 7.21183,-1.904 8.25865,-1.904 1.04683,0 3.77307,-1.35444 6.05831,-3.00986 4.43513,-3.21279 12.34903,-5.99014 17.06855,-5.99014 1.58281,0 6.56364,-1.79389 11.0685,-3.98642 12.40946,-6.03972 18.77033,-7.3432 36.28078,-7.43472 9.9363,-0.0519 15.57166,0.31131 16.5,1.06353 0.77543,0.62832 2.30987,1.32685 3.40987,1.55229 1.1,0.22545 -6.55,0.70027 -17,1.05516 -14.60555,0.49602 -20.85029,1.13594 -27,2.76677 -10.71906,2.84258 -11.53357,3.96455 -2.95,4.06356 7.57953,0.0874 16.53624,2.59283 17.26416,4.82918 0.33906,1.04167 -0.0334,1.2031 -1.42771,0.61879 -3.15779,-1.32333 -28.47678,-1.82221 -34.57961,-0.68134 -3.13124,0.58535 -8.30624,1.85188 -11.5,2.8145 l -5.80684,1.75023 5.5,0.63738 c 5.89976,0.68372 10.7732,2.75591 13.07283,5.55857 1.28184,1.56223 1.22351,1.67763 -0.57283,1.1332 -9.94161,-3.01304 -14.04241,-3.70786 -21.5,-3.64286 -8.79495,0.0767 -8.36519,0.89457 1.42142,2.7052 2.15678,0.39902 4.10678,1.28158 4.33333,1.96124 0.31379,0.94135 -2.8888,1.23574 -13.44306,1.23574 -21.35422,0 -29.51815,2.91001 -39.21148,13.9768 -4.46725,5.10021 -6.10021,6.08923 -6.10021,3.69464 z m 171.99086,-6.18245 c -0.67966,-0.81894 -1.6584,-1.48899 -2.17497,-1.48899 -0.51657,0 -4.21294,-1.59633 -8.21414,-3.5474 -9.99331,-4.87295 -16.55246,-6.42886 -27.10175,-6.42886 -13.26034,0 -24.25686,3.63016 -29.9062,9.87262 -2.15365,2.37975 -3.5938,2.71295 -3.5938,0.83148 0,-2.5563 6.17581,-8.66676 11.28673,-11.1673 7.42202,-3.63125 23.71939,-5.40413 34.81364,-3.78712 11.1055,1.61864 21.51294,6.6512 25.10692,12.14056 2.53558,3.87277 2.36528,6.68578 -0.21643,3.57501 z m -69.93514,-11.10883 c 1.89435,-1.44092 7.10196,-4.36187 11.57246,-6.49102 9.9048,-4.71732 24.06106,-6.78739 33.93431,-4.96222 9.47018,1.75066 8.11026,2.59486 -3.64081,2.26011 -13.22296,-0.37669 -22.51729,1.6528 -35.5599,7.76477 -4.75125,2.22651 -8.88876,4.0482 -9.19448,4.0482 -0.30572,0 0.99407,-1.17893 2.88842,-2.61984 z m 15.44428,-48.28371 c -1.82739,-1.07048 -3.24691,-2.89854 -3.63169,-4.67692 -0.34742,-1.60574 -0.68492,-2.13203 -0.75,-1.16953 -0.13949,2.0632 -2.11831,2.39514 -2.11831,0.35534 0,-0.76707 0.88366,-4.25457 1.96368,-7.75 2.32934,-7.53877 7.72773,-16.86303 12.84894,-22.19309 l 3.68738,-3.83774 -3.81606,2.2255 c -5.47353,3.19212 -13.14765,13.07077 -17.99703,23.16698 -4.28668,8.9247 -6.27166,11.30869 -4.61956,5.54817 1.49357,-5.20775 5.60653,-12.95807 9.13817,-17.21961 1.80243,-2.17495 3.15041,-4.7025 2.99552,-5.61677 -0.67599,-3.99025 15.05259,-15.885542 21.04896,-15.919012 0.9625,-0.005 1.75,-0.42836 1.75,-0.93996 0,-1.13182 -3.95341,-0.0687 -10.47918,2.817962 -2.62628,1.16173 -5.0126,2.11223 -5.30293,2.11223 -1.33954,0 3.65918,-4.405272 6.84209,-6.029792 9.68208,-4.94162 29.94002,-6.87893 29.94002,-2.86322 0,0.49115 -0.99,0.89301 -2.2,0.89301 -1.70083,0 -1.93,0.27 -1.01001,1.18999 0.91998,0.91998 1.95017,0.82748 4.54035,-0.40769 2.90256,-1.38414 3.29182,-1.99659 2.91234,-4.58216 -0.3358,-2.28796 -1.30796,-3.37676 -4.16554,-4.66536 -2.05013,-0.92448 -5.00248,-2.6975 -6.56078,-3.94004 -4.58017,-3.6521 -0.63343,-4.01661 6.18894,-0.57158 3.18709,1.60935 5.93717,2.51009 6.11131,2.00164 1.55993,-4.55478 9.82142,-10.0248 15.14067,-10.0248 2.03957,0 4.26946,-1.10689 6.78984,-3.37039 4.66171,-4.18659 12.60192,-8.255177 17.80811,-9.124925 2.16962,-0.362458 6.19415,-1.584929 8.94339,-2.716602 4.49164,-1.848901 6.21583,-1.987258 17,-1.364159 6.60076,0.381386 14.92638,1.004523 18.50138,1.38475 5.68271,0.604396 6.24853,0.844669 4.5,1.910912 -1.68743,1.028989 -0.80927,1.224344 5.61901,1.25 4.19046,0.01673 11.61546,0.803564 16.5,1.748544 4.88454,0.94497 11.24349,1.66098 14.13099,1.59113 5.54809,-0.13422 6.66334,0.86397 3.0975,2.77235 -2.03625,1.08977 -1.89508,1.27605 2.61409,3.44927 2.62162,1.26351 5.24774,2.77845 5.83583,3.36653 1.9072,1.90721 0.0452,2.22279 -3.9226,0.66483 -12.66276,-4.97202 -36.76497,-7.01395 -49.43523,-4.18813 -7.73744,1.72566 -15.43533,5.53417 -20.24111,10.01424 -3.63531,3.38892 -4.92591,3.34003 -3.60413,-0.13652 2.00579,-5.27561 6.44754,-8.42184 17.39396,-12.32067 4.41163,-1.57131 4.6525,-1.79287 2.01169,-1.85046 -4.02158,-0.0877 -14.59849,3.19901 -18.9507,5.88882 -1.93317,1.19477 -5.09761,4.02139 -7.03208,6.28139 -2.58653,3.02178 -3.51722,3.62336 -3.51722,2.27347 0,-1.00958 1.20207,-3.41159 2.67126,-5.3378 l 2.67126,-3.5022 -5.67352,0.66681 c -3.12044,0.36674 -7.46677,1.38433 -9.65853,2.26129 -4.45572,1.78283 -9.65732,7.13228 -10.60443,10.90586 -0.34257,1.36491 -1.07656,2.48166 -1.63108,2.48166 -0.55756,0 -0.7387,-1.00573 -0.40525,-2.25 0.33164,-1.2375 0.60913,-2.79685 0.61664,-3.46521 0.027,-2.40351 6.59888,-8.64818 11.50637,-10.93348 3.77364,-1.7573 6.77937,-2.33418 12.20012,-2.34155 5.51119,-0.007 8.02982,-0.5036 10.77282,-2.122 1.96898,-1.16173 5.48221,-2.68155 7.80716,-3.37737 l 4.22718,-1.26514 -4.5,-1.23397 c -7.17524,-1.967564 -16.49659,-0.828963 -24.5468,2.99839 -9.15301,4.35165 -20.32468,15.29705 -22.95527,22.49033 -2.21101,6.04597 -3.49793,7.73466 -3.49793,4.58998 0,-3.71255 6.05101,-14.02739 12,-20.45576 5.1487,-5.5636 5.28272,-5.83087 2.0982,-4.18454 -1.87098,0.96727 -5.50293,3.85981 -8.07099,6.42787 -5.5412,5.5412 -13.26407,19.48559 -11.67298,21.07668 0.72769,0.72769 -0.004,1.04764 -2.40423,1.05193 -1.8975,0.003 -4.73894,0.67839 -6.31431,1.5 -1.57537,0.82161 -3.43836,1.49384 -4.13999,1.49384 -4.26814,0 -21.44527,16.958372 -20.72799,20.464022 0.27723,1.35497 -2.39831,2.88232 -3.67112,2.09568 -0.39761,-0.24574 -1.9586,1.4403 -3.46887,3.74675 -2.27729,3.47781 -2.6932,5.08983 -2.43684,9.44491 0.17002,2.88825 -0.0125,5.25075 -0.4057,5.25 -1.21307,-0.002 -2.78335,-3.72429 -2.82062,-6.68562 l -0.0354,-2.81574 -1.46328,2.5 c -0.82856,1.41559 -1.38142,4.55026 -1.27456,7.22666 0.22015,5.51395 -0.64548,6.90204 -2.62013,4.20155 -1.35014,-1.84644 -1.4366,-1.81252 -2.09807,0.823 -0.79172,3.15444 -1.78994,3.29569 -5.97309,0.84524 z m 4.30687,-8.62291 c -0.30789,-0.30789 -0.86705,0.24711 -1.24258,1.23333 -0.54268,1.4252 -0.42782,1.54006 0.5598,0.5598 0.68342,-0.67834 0.99067,-1.48524 0.68278,-1.79313 z m 54.67771,-51.223542 c 2.14507,-3.7125 4.58425,-7.82954 5.4204,-9.14898 1.44733,-2.28388 1.4261,-2.34442 -0.44236,-1.26186 -4.36318,2.52795 -13.41969,11.83064 -14.0295,14.41084 -0.59495,2.51733 -0.40452,2.75 2.2507,2.75 2.52916,0 3.4001,-0.86444 6.80076,-6.75 z m 72.70292,-19.93312 c -0.72187,-0.28887 -1.58438,-0.25334 -1.91667,0.0789 -0.33229,0.33229 0.25834,0.56864 1.3125,0.52522 1.16495,-0.048 1.4019,-0.28494 0.60417,-0.60417 z m 95.14471,77.591792 c -2.87277,-1.10463 -7.88891,-4.41512 -11.29503,-7.45434 -3.36999,-3.00698 -7.23198,-6.19109 -8.58221,-7.07579 -3.47824,-2.27903 -3.05439,-3.73987 0.54503,-1.87854 1.65,0.85325 3,1.29553 3,0.98284 0,-0.31269 -1.95178,-2.68674 -4.33729,-5.27568 -4.99169,-5.41738 -6.25644,-8.04209 -4.24678,-8.81327 1.43336,-0.55004 13.37674,7.85435 15.01472,10.56563 1.81166,2.99876 11.97521,13.12751 15.00066,14.94929 1.68778,1.0163 4.86869,2.15157 7.06869,2.52282 2.2,0.37125 4.9,0.95541 6,1.29812 1.8473,0.57554 1.80912,0.67838 -0.5,1.347 -4.64987,1.3464 -12.47375,0.82913 -17.66779,-1.16808 z M 459.93398,126.67463 c 1.73438,-5.59961 6.01094,-12.41 10.44972,-16.64108 6.40456,-6.10487 20.58702,-13.344982 26.80039,-13.681522 2.57827,-0.13964 5.95456,-0.74294 7.50287,-1.34065 3.52977,-1.36264 10.3636,-1.41565 11.1849,-0.0867 0.34333,0.55551 -0.4083,1.00481 -1.69098,1.01082 -1.26996,0.006 -4.40596,0.64723 -6.96889,1.42505 -16.417,4.982382 -30.53032,17.104122 -32.41442,27.840322 l -0.74124,4.22381 -0.89196,-3.33156 c -0.69848,-2.60888 -0.45321,-4.23577 1.13068,-7.5 2.13473,-4.39942 8.54759,-11.7406 13.57681,-15.54217 2.54381,-1.92285 2.20251,-1.85307 -2.24443,0.45892 -8.24259,4.28536 -17.6581,12.64538 -21.80053,19.35665 -3.97029,6.43238 -5.02541,7.46452 -3.89292,3.80816 z m 136.93788,-1.61659 c -7.3945,-2.12482 -15.39737,-6.41284 -20.29656,-10.8751 -4.27373,-3.89259 -3.97243,-3.86645 4.79656,0.41619 3.575,1.74597 7.85,3.49281 9.5,3.88186 l 3,0.70736 -3.5,-3.71763 c -5.13773,-5.45719 -17.30774,-13.13039 -26.47538,-16.692762 -6.39528,-2.48508 -10.15656,-3.24618 -18.52462,-3.74849 l -10.5,-0.63027 3.20034,-1.73729 c 1.76019,-0.9555 4.91019,-1.79741 7,-1.87089 3.59074,-0.12627 3.52474,-0.17644 -1.20034,-0.9124 -2.75,-0.42833 -7.8125,-0.8182 -11.25,-0.86638 -4.72999,-0.0663 -6.25,-0.43751 -6.25,-1.52634 0,-3.55173 21.52069,-3.23765 33.5,0.48891 8.07361,2.51156 13.96835,5.35715 22.43951,10.83233 9.31693,6.021822 18.5184,9.418442 25.80501,9.525632 3.43448,0.0505 6.24391,0.31686 6.24316,0.59186 -7.4e-4,0.275 -1.55167,1.5557 -3.44651,2.84601 -3.9031,2.65784 -7.98007,2.43374 -17.04117,-0.93672 l -5,-1.85986 2.5,2.04629 c 5.08606,4.16301 12.82961,7.04562 20.48112,7.62431 4.67094,0.35326 7.22652,0.944 6.83367,1.57965 -0.40232,0.65097 0.23607,0.75042 1.77884,0.27711 7.66124,-2.35041 9.31325,-1.46853 3.66713,1.9576 -7.92569,4.8094 -16.66793,5.64288 -27.26076,2.59902 z M 455.9961,119.38781 c -0.9366,-2.44076 3.05926,-9.27782 8.73517,-14.94619 4.81096,-4.804552 16.03171,-11.459202 17.25661,-10.234302 0.30238,0.30238 -2.0518,2.214 -5.23153,4.24805 -7.22869,4.624142 -15.41155,12.925222 -18.10242,18.363942 -1.49311,3.01784 -2.21696,3.71737 -2.65783,2.5685 z m 45.63138,-5.74876 c 1.09963,-3.35053 13.4456,-8.71442 20.05785,-8.71442 1.62275,0 4.48975,0.95133 6.3711,2.11407 3.71838,2.29809 3.90466,3.80683 0.227,1.8386 -3.72572,-1.99394 -14.47863,-0.48127 -21.23304,2.98697 -3.20181,1.64406 -5.64212,2.44271 -5.42291,1.77478 z M 378.02652,83.565628 c -12.42103,-2.42457 -0.73684,-3.55923 15.84534,-1.53875 4.95,0.60313 9.675,1.48818 10.5,1.96677 2.21191,1.28314 -19.37587,0.93242 -26.34534,-0.42802 z m 116.34534,-0.46592 c 0,-2.13437 6.17821,-5.32083 13.22161,-6.81915 9.07681,-1.93087 20.11154,-1.32959 28.2421,1.5389 6.21694,2.19336 11.6275,6.07282 6.53629,4.68662 -17.04043,-4.63963 -33.69027,-4.31371 -46.25,0.90533 -1.01032,0.41983 -1.75,0.28808 -1.75,-0.3117 z m -127.29458,-5.32442 c 4.54851,-2.18888 9.0877,-3.35271 17,-4.35873 l 10.79458,-1.37249 -16.5,0.24193 c -13.40781,0.1966 -17.18828,0.57469 -20.17265,2.01752 -2.01996,0.97657 -3.91833,2.41582 -4.21861,3.19834 -0.66017,1.72037 -2.60874,1.89755 -2.60874,0.23722 0,-0.65206 1.0125,-2.30669 2.25,-3.67697 2.12113,-2.34871 1.92067,-2.30896 -3.5,0.6941 -5.9766,3.31105 -6.43743,3.3214 -4.71656,0.10594 2.06326,-3.85524 12.15365,-7.30566 29.22327,-9.99294 8.31233,-1.30862 19.28524,-0.80263 21.05895,0.97108 0.77912,0.77912 0.53545,1.09376 -0.86566,1.11783 -1.0725,0.0184 0.69527,0.94332 3.92837,2.05533 6.32823,2.17657 11.23466,1.77101 19.28925,-1.59442 7.75236,-3.23914 4.89838,0.96229 -3.61269,5.31834 -5.32082,2.72326 -7.06142,3.05674 -19.20306,3.6791 -7.34353,0.37642 -17.69756,1.54474 -23.00895,2.59628 -5.3114,1.05153 -10.0364,1.87518 -10.5,1.83033 -0.46361,-0.0448 1.94952,-1.42536 5.3625,-3.06779 z m 8.04458,-10.53999 c -0.9625,-0.25153 -2.5375,-0.25153 -3.5,0 -0.9625,0.25153 -0.175,0.45732 1.75,0.45732 1.925,0 2.7125,-0.20579 1.75,-0.45732 z"
     id="path3035"
     inkscape:connector-curvature="0" />
</svg>
